<svg width="271" height="40" viewBox="0 0 271 40" fill="none" xmlns="http://www.w3.org/2000/svg">
<path d="M110.135 0.00013H9.53468C9.16798 0.00013 8.80568 0.00013 8.43995 0.00213C8.1338 0.00413 7.83009 0.00994 7.521 0.01483C6.84951 0.0227318 6.17961 0.0818063 5.5171 0.19154C4.85552 0.303663 4.21467 0.515046 3.61622 0.81854C3.0185 1.1246 2.47235 1.5223 1.99757 1.9972C1.5203 2.47077 1.12246 3.01815 0.81935 3.61829C0.5154 4.21724 0.304641 4.85907 0.19435 5.52161C0.0830109 6.18332 0.0230984 6.85265 0.01515 7.52361C0.00587 7.83021 0.00489 8.13783 0 8.44447V31.5587C0.00489 31.8692 0.00587 32.17 0.01515 32.4806C0.0231008 33.1516 0.0830134 33.8209 0.19435 34.4825C0.304336 35.1455 0.515108 35.7877 0.81935 36.3868C1.12233 36.985 1.52022 37.5302 1.99757 38.0011C2.47054 38.4781 3.01705 38.8761 3.61622 39.1798C4.21467 39.4841 4.85545 39.6968 5.5171 39.8106C6.17972 39.9195 6.84956 39.9786 7.521 39.9874C7.83009 39.9942 8.1338 39.9981 8.43995 39.9981C8.80567 40.0001 9.168 40.0001 9.53468 40.0001H110.135C110.494 40.0001 110.859 40.0001 111.219 39.9981C111.523 39.9981 111.836 39.9942 112.141 39.9874C112.811 39.9791 113.479 39.92 114.141 39.8106C114.804 39.696 115.448 39.4834 116.049 39.1798C116.647 38.8759 117.193 38.478 117.666 38.0011C118.142 37.5284 118.541 36.9836 118.848 36.3868C119.15 35.7872 119.358 35.1451 119.467 34.4825C119.578 33.8208 119.64 33.1516 119.652 32.4806C119.656 32.17 119.656 31.8692 119.656 31.5587C119.664 31.1954 119.664 30.8341 119.664 30.4649V9.53626C119.664 9.17005 119.664 8.80677 119.656 8.44447C119.656 8.13783 119.656 7.83021 119.652 7.52357C119.64 6.85255 119.578 6.18337 119.467 5.52157C119.358 4.85941 119.149 4.21763 118.848 3.61825C118.23 2.41533 117.252 1.43616 116.049 0.81845C115.448 0.515697 114.804 0.30437 114.141 0.19145C113.48 0.0812328 112.811 0.0221378 112.141 0.01469C111.836 0.00981 111.523 0.00395 111.219 0.002C110.859 0 110.494 0 110.135 0V0.00013Z" fill="#A6A6A6"/>
<path d="M8.44682 39.125C8.14214 39.125 7.84482 39.1211 7.54253 39.1143C6.91631 39.1061 6.29156 39.0516 5.67339 38.9512C5.09698 38.8519 4.53859 38.6673 4.01665 38.4033C3.49949 38.1415 3.0278 37.7983 2.61965 37.3867C2.20559 36.98 1.86087 36.5082 1.59914 35.9902C1.33453 35.4688 1.1514 34.9099 1.05614 34.333C0.953264 33.7131 0.897604 33.0863 0.88964 32.458C0.8833 32.2471 0.875 31.5449 0.875 31.5449V8.44434C0.875 8.44434 0.88384 7.75293 0.88969 7.5498C0.897316 6.92248 0.952652 6.29665 1.05522 5.67773C1.15066 5.09925 1.33393 4.53875 1.59868 4.01563C1.85944 3.49794 2.20225 3.02586 2.61382 2.61768C3.02492 2.20562 3.49812 1.8606 4.01616 1.59521C4.5369 1.33209 5.09424 1.14873 5.66948 1.05127C6.28968 0.949836 6.9166 0.894996 7.54499 0.88721L8.44731 0.875H111.216L112.129 0.8877C112.752 0.895099 113.373 0.94945 113.987 1.05029C114.568 1.14898 115.132 1.33362 115.658 1.59814C116.696 2.13299 117.541 2.97916 118.073 4.01807C118.334 4.53758 118.514 5.09351 118.608 5.66699C118.712 6.29099 118.77 6.92174 118.782 7.5542C118.785 7.8374 118.785 8.1416 118.785 8.44434C118.793 8.81934 118.793 9.17627 118.793 9.53613V30.4648C118.793 30.8281 118.793 31.1826 118.785 31.54C118.785 31.8652 118.785 32.1631 118.781 32.4697C118.77 33.0909 118.712 33.7104 118.61 34.3232C118.517 34.9043 118.335 35.4675 118.07 35.9932C117.807 36.5056 117.464 36.9733 117.055 37.3789C116.646 37.7927 116.174 38.1379 115.655 38.4014C115.13 38.6674 114.568 38.8527 113.987 38.9512C113.369 39.0522 112.744 39.1067 112.118 39.1143C111.825 39.1211 111.519 39.125 111.221 39.125L110.137 39.127L8.44682 39.125Z" fill="black"/>
<path d="M24.7661 20.3003C24.7768 19.4657 24.9985 18.6473 25.4105 17.9213C25.8226 17.1954 26.4115 16.5854 27.1226 16.1483C26.6709 15.5031 26.0749 14.9722 25.3821 14.5976C24.6893 14.2231 23.9187 14.0152 23.1315 13.9906C21.4522 13.8143 19.8243 14.9954 18.9686 14.9954C18.0963 14.9954 16.7788 14.0081 15.3601 14.0373C14.4424 14.0669 13.548 14.3338 12.7642 14.8118C11.9803 15.2899 11.3336 15.9629 10.8871 16.7651C8.95314 20.1136 10.3957 25.0346 12.2483 27.7412C13.1752 29.0666 14.2585 30.547 15.676 30.4945C17.063 30.437 17.5811 29.61 19.2554 29.61C20.9141 29.61 21.4002 30.4945 22.8464 30.4611C24.3348 30.437 25.2725 29.1299 26.1669 27.792C26.8329 26.8476 27.3453 25.8039 27.6853 24.6995C26.8206 24.3338 26.0827 23.7216 25.5636 22.9393C25.0444 22.157 24.7671 21.2392 24.7661 20.3003V20.3003Z" fill="white"/>
<path d="M22.0356 12.2113C22.8471 11.2371 23.247 9.98494 23.1501 8.7207C21.9103 8.85092 20.765 9.44348 19.9426 10.3803C19.5404 10.838 19.2324 11.3704 19.0362 11.9472C18.8399 12.524 18.7593 13.1337 18.7988 13.7417C19.419 13.7481 20.0325 13.6137 20.5932 13.3486C21.1538 13.0835 21.647 12.6946 22.0356 12.2113Z" fill="white"/>
<path d="M42.2969 27.1397H37.5635L36.4268 30.4961H34.4219L38.9053 18.0781H40.9883L45.4717 30.4961H43.4326L42.2969 27.1397ZM38.0537 25.5908H41.8057L39.9561 20.1436H39.9043L38.0537 25.5908Z" fill="white"/>
<path d="M55.1534 25.9695C55.1534 28.7829 53.6475 30.5905 51.375 30.5905C50.7994 30.6207 50.2269 30.4881 49.7231 30.2079C49.2193 29.9278 48.8046 29.5114 48.5264 29.0065H48.4834V33.4909H46.625V21.4421H48.4239V22.948H48.458C48.749 22.4455 49.1707 22.0313 49.6784 21.7495C50.186 21.4676 50.7605 21.3287 51.3409 21.3474C53.6387 21.3474 55.1534 23.1638 55.1534 25.9695ZM53.2432 25.9695C53.2432 24.1365 52.2959 22.9314 50.8506 22.9314C49.4307 22.9314 48.4756 24.1618 48.4756 25.9695C48.4756 27.7937 49.4307 29.0154 50.8506 29.0154C52.2959 29.0154 53.2432 27.8191 53.2432 25.9695Z" fill="white"/>
<path d="M65.1221 25.9694C65.1221 28.7829 63.6162 30.5905 61.3438 30.5905C60.7681 30.6206 60.1956 30.488 59.6918 30.2079C59.188 29.9278 58.7733 29.5114 58.4952 29.0065H58.4521V33.4909H56.5938V21.4421H58.3926V22.948H58.4268C58.7177 22.4455 59.1394 22.0313 59.6471 21.7495C60.1547 21.4676 60.7292 21.3287 61.3096 21.3474C63.6075 21.3474 65.1221 23.1638 65.1221 25.9694ZM63.2119 25.9694C63.2119 24.1364 62.2647 22.9314 60.8194 22.9314C59.3994 22.9314 58.4444 24.1618 58.4444 25.9694C58.4444 27.7937 59.3994 29.0153 60.8194 29.0153C62.2647 29.0153 63.2119 27.8191 63.2119 25.9694H63.2119Z" fill="white"/>
<path d="M71.7071 27.0362C71.8448 28.2676 73.0411 29.0762 74.6758 29.0762C76.2422 29.0762 77.3692 28.2676 77.3692 27.1572C77.3692 26.1934 76.6895 25.6162 75.0801 25.2207L73.4707 24.833C71.1905 24.2822 70.1319 23.2158 70.1319 21.4854C70.1319 19.3428 71.9991 17.8711 74.6504 17.8711C77.2744 17.8711 79.0733 19.3428 79.1338 21.4854H77.2578C77.1455 20.2461 76.1211 19.4981 74.624 19.4981C73.127 19.4981 72.1025 20.2549 72.1025 21.3565C72.1025 22.2344 72.7568 22.751 74.3574 23.1465L75.7256 23.4824C78.2734 24.0849 79.332 25.1084 79.332 26.9248C79.332 29.248 77.4814 30.7031 74.5381 30.7031C71.7842 30.7031 69.9248 29.2822 69.8047 27.0361L71.7071 27.0362Z" fill="white"/>
<path d="M83.3398 19.3008V21.4434H85.0615V22.915H83.3398V27.9062C83.3398 28.6816 83.6846 29.043 84.4414 29.043C84.6458 29.0394 84.8498 29.0251 85.0527 29V30.4629C84.7125 30.5264 84.3666 30.5552 84.0205 30.5488C82.1875 30.5488 81.4726 29.8603 81.4726 28.1045V22.915H80.1562V21.4434H81.4726V19.3008H83.3398Z" fill="white"/>
<path d="M86.0625 25.9707C86.0625 23.1221 87.7402 21.332 90.3564 21.332C92.9814 21.332 94.6514 23.122 94.6514 25.9707C94.6514 28.8272 92.9902 30.6094 90.3564 30.6094C87.7236 30.6094 86.0625 28.8271 86.0625 25.9707ZM92.7578 25.9707C92.7578 24.0166 91.8623 22.8633 90.3564 22.8633C88.8506 22.8633 87.956 24.0254 87.956 25.9707C87.956 27.9326 88.8506 29.0772 90.3564 29.0772C91.8623 29.0772 92.7578 27.9326 92.7578 25.9707H92.7578Z" fill="white"/>
<path d="M96.1797 21.442H97.9522V22.983H97.9952C98.1151 22.5017 98.397 22.0764 98.7936 21.7785C99.1902 21.4806 99.6772 21.3284 100.173 21.3473C100.387 21.3465 100.601 21.3698 100.81 21.4166V23.1549C100.539 23.0723 100.257 23.0343 99.9746 23.0426C99.7046 23.0316 99.4355 23.0792 99.1856 23.1821C98.9358 23.285 98.7112 23.4408 98.5272 23.6386C98.3432 23.8365 98.2043 24.0719 98.1198 24.3286C98.0354 24.5852 98.0075 24.8571 98.0381 25.1256V30.4957H96.1797L96.1797 21.442Z" fill="white"/>
<path d="M109.378 27.8379C109.128 29.4814 107.527 30.6094 105.479 30.6094C102.846 30.6094 101.211 28.8447 101.211 26.0137C101.211 23.1738 102.854 21.332 105.401 21.332C107.906 21.332 109.481 23.0527 109.481 25.7978V26.4346H103.087V26.5469C103.057 26.8801 103.099 27.2157 103.209 27.5316C103.319 27.8474 103.496 28.1362 103.726 28.3787C103.956 28.6213 104.236 28.8121 104.545 28.9384C104.855 29.0647 105.188 29.1236 105.522 29.1113C105.962 29.1525 106.402 29.0508 106.779 28.8213C107.156 28.5919 107.448 28.247 107.613 27.8379L109.378 27.8379ZM103.096 25.1357H107.622C107.639 24.8361 107.593 24.5363 107.489 24.2551C107.384 23.9739 107.222 23.7174 107.014 23.5016C106.805 23.2858 106.554 23.1155 106.277 23.0013C105.999 22.8871 105.701 22.8314 105.401 22.8379C105.099 22.8361 104.799 22.8942 104.519 23.009C104.239 23.1237 103.984 23.2928 103.77 23.5064C103.555 23.72 103.385 23.974 103.27 24.2537C103.154 24.5333 103.095 24.8331 103.096 25.1357V25.1357Z" fill="white"/>
<path d="M37.8271 8.73138C38.2168 8.70342 38.6077 8.76228 38.9718 8.90371C39.3359 9.04515 39.6641 9.26563 39.9327 9.54925C40.2013 9.83288 40.4036 10.1726 40.525 10.5438C40.6464 10.9151 40.6839 11.3087 40.6348 11.6962C40.6348 13.6025 39.6045 14.6982 37.8271 14.6982H35.6719V8.73138H37.8271ZM36.5986 13.8544H37.7236C38.002 13.871 38.2806 13.8254 38.5392 13.7208C38.7977 13.6161 39.0297 13.4552 39.2182 13.2496C39.4067 13.0441 39.5469 12.7991 39.6288 12.5324C39.7107 12.2658 39.7321 11.9843 39.6914 11.7084C39.7291 11.4335 39.7056 11.1538 39.6224 10.8891C39.5393 10.6244 39.3987 10.3814 39.2106 10.1775C39.0226 9.97358 38.7917 9.81378 38.5346 9.70954C38.2776 9.6053 38.0006 9.55922 37.7236 9.57459H36.5986V13.8544Z" fill="white"/>
<path d="M41.6819 12.4458C41.6536 12.1498 41.6875 11.8513 41.7813 11.5692C41.8751 11.2871 42.0269 11.0278 42.2268 10.8078C42.4268 10.5878 42.6705 10.4121 42.9423 10.2918C43.2142 10.1715 43.5082 10.1094 43.8055 10.1094C44.1027 10.1094 44.3967 10.1715 44.6686 10.2918C44.9404 10.4121 45.1841 10.5878 45.3841 10.8078C45.584 11.0278 45.7358 11.2871 45.8296 11.5692C45.9235 11.8513 45.9573 12.1498 45.929 12.4458C45.9578 12.742 45.9244 13.041 45.8308 13.3235C45.7372 13.606 45.5855 13.8658 45.3855 14.0862C45.1856 14.3067 44.9417 14.4828 44.6695 14.6033C44.3974 14.7239 44.1031 14.7861 43.8055 14.7861C43.5078 14.7861 43.2135 14.7239 42.9414 14.6033C42.6693 14.4828 42.4254 14.3067 42.2254 14.0862C42.0254 13.8658 41.8737 13.606 41.7801 13.3235C41.6865 13.041 41.6531 12.742 41.6819 12.4458V12.4458ZM45.0149 12.4458C45.0149 11.4697 44.5764 10.8989 43.8069 10.8989C43.0345 10.8989 42.5999 11.4697 42.5999 12.4458C42.5999 13.4297 43.0345 13.9961 43.8069 13.9961C44.5765 13.996 45.0149 13.4257 45.0149 12.4458H45.0149Z" fill="white"/>
<path d="M51.5742 14.6982H50.6523L49.7217 11.3818H49.6514L48.7246 14.6982H47.8115L46.5703 10.1953H47.4717L48.2783 13.6313H48.3447L49.2705 10.1953H50.1231L51.0488 13.6313H51.1191L51.9219 10.1953H52.8105L51.5742 14.6982Z" fill="white"/>
<path d="M53.8516 10.1949H54.707V10.9102H54.7734C54.8861 10.6533 55.0761 10.4379 55.317 10.2941C55.5578 10.1503 55.8376 10.0852 56.1172 10.1079C56.3363 10.0915 56.5563 10.1245 56.7609 10.2046C56.9655 10.2847 57.1494 10.4098 57.2991 10.5707C57.4488 10.7315 57.5604 10.924 57.6256 11.1338C57.6908 11.3436 57.7079 11.5654 57.6758 11.7827V14.6977H56.7871V12.0059C56.7871 11.2823 56.4727 10.9224 55.8154 10.9224C55.6667 10.9155 55.5182 10.9408 55.3801 10.9966C55.2421 11.0525 55.1177 11.1375 55.0156 11.2459C54.9135 11.3543 54.836 11.4834 54.7885 11.6246C54.7409 11.7657 54.7245 11.9154 54.7402 12.0635V14.6978H53.8516L53.8516 10.1949Z" fill="white"/>
<path d="M59.0938 8.4375H59.9824V14.6982H59.0938V8.4375Z" fill="white"/>
<path d="M61.221 12.4439C61.1927 12.1479 61.2265 11.8494 61.3204 11.5673C61.4143 11.2852 61.5661 11.0259 61.766 10.8059C61.966 10.5859 62.2097 10.4101 62.4816 10.2898C62.7534 10.1696 63.0475 10.1074 63.3447 10.1074C63.642 10.1074 63.936 10.1696 64.2079 10.2898C64.4798 10.4101 64.7235 10.5859 64.9235 10.8059C65.1234 11.0259 65.2752 11.2852 65.3691 11.5673C65.4629 11.8494 65.4968 12.1479 65.4685 12.4439C65.4973 12.7401 65.4638 13.0391 65.3702 13.3216C65.2766 13.6042 65.1249 13.864 64.9249 14.0844C64.7249 14.3048 64.481 14.4809 64.2088 14.6014C63.9367 14.722 63.6424 14.7842 63.3447 14.7842C63.0471 14.7842 62.7528 14.722 62.4806 14.6014C62.2085 14.4809 61.9646 14.3048 61.7646 14.0844C61.5646 13.864 61.4129 13.6042 61.3193 13.3216C61.2256 13.0391 61.1921 12.7401 61.221 12.4439V12.4439ZM64.554 12.4439C64.554 11.4678 64.1155 10.897 63.346 10.897C62.5735 10.897 62.139 11.4678 62.139 12.4439C62.139 13.4278 62.5735 13.9942 63.346 13.9942C64.1155 13.9942 64.554 13.4239 64.554 12.4439H64.554Z" fill="white"/>
<path d="M66.3984 13.4258C66.3984 12.6152 67.002 12.1479 68.0732 12.0815L69.293 12.0112V11.6226C69.293 11.147 68.9785 10.8784 68.3711 10.8784C67.875 10.8784 67.5313 11.0605 67.4326 11.3789H66.5723C66.6631 10.6055 67.3906 10.1094 68.4121 10.1094C69.541 10.1094 70.1777 10.6714 70.1777 11.6226V14.6992H69.3223V14.0664H69.252C69.1092 14.2934 68.9088 14.4784 68.6712 14.6027C68.4336 14.7269 68.1673 14.7858 67.8994 14.7734C67.7104 14.7931 67.5193 14.7729 67.3386 14.7142C67.1578 14.6555 66.9913 14.5596 66.8499 14.4326C66.7085 14.3056 66.5953 14.1504 66.5175 13.977C66.4397 13.8036 66.3992 13.6158 66.3984 13.4258V13.4258ZM69.293 13.041V12.6645L68.1934 12.7349C67.5732 12.7764 67.292 12.9873 67.292 13.3843C67.292 13.7895 67.6435 14.0254 68.127 14.0254C68.2686 14.0397 68.4117 14.0254 68.5477 13.9833C68.6837 13.9412 68.8099 13.8722 68.9187 13.7804C69.0274 13.6885 69.1166 13.5757 69.1809 13.4487C69.2453 13.3217 69.2833 13.183 69.293 13.041V13.041Z" fill="white"/>
<path d="M71.3516 12.4448C71.3516 11.022 72.083 10.1206 73.2207 10.1206C73.5021 10.1077 73.7814 10.1751 74.0259 10.315C74.2705 10.4548 74.4701 10.6615 74.6016 10.9106H74.668V8.4375H75.5566V14.6982H74.7051V13.9868H74.6348C74.4932 14.2343 74.2866 14.4383 74.0373 14.5768C73.788 14.7153 73.5057 14.783 73.2207 14.7724C72.0752 14.7725 71.3516 13.8711 71.3516 12.4448ZM72.2696 12.4448C72.2696 13.3999 72.7198 13.9746 73.4727 13.9746C74.2217 13.9746 74.6846 13.3916 74.6846 12.4487C74.6846 11.5103 74.2168 10.919 73.4727 10.919C72.7246 10.919 72.2695 11.4976 72.2695 12.4448H72.2696Z" fill="white"/>
<path d="M79.2288 12.4458C79.2005 12.1498 79.2343 11.8513 79.3282 11.5692C79.422 11.2871 79.5738 11.0278 79.7737 10.8078C79.9737 10.5878 80.2174 10.4121 80.4892 10.2918C80.7611 10.1715 81.0551 10.1094 81.3523 10.1094C81.6496 10.1094 81.9436 10.1715 82.2154 10.2918C82.4873 10.4121 82.731 10.5878 82.9309 10.8078C83.1309 11.0278 83.2826 11.2871 83.3765 11.5692C83.4703 11.8513 83.5042 12.1498 83.4759 12.4458C83.5047 12.742 83.4713 13.041 83.3777 13.3235C83.2841 13.606 83.1324 13.8658 82.9324 14.0862C82.7324 14.3067 82.4885 14.4828 82.2164 14.6033C81.9443 14.7239 81.65 14.7861 81.3523 14.7861C81.0547 14.7861 80.7604 14.7239 80.4882 14.6033C80.2161 14.4828 79.9722 14.3067 79.7722 14.0862C79.5722 13.8658 79.4206 13.606 79.327 13.3235C79.2334 13.041 79.1999 12.742 79.2288 12.4458V12.4458ZM82.5618 12.4458C82.5618 11.4697 82.1233 10.8989 81.3538 10.8989C80.5813 10.8989 80.1468 11.4697 80.1468 12.4458C80.1468 13.4297 80.5814 13.9961 81.3538 13.9961C82.1233 13.996 82.5618 13.4257 82.5618 12.4458Z" fill="white"/>
<path d="M84.6719 10.1949H85.5273V10.9102H85.5938C85.7064 10.6533 85.8964 10.4379 86.1373 10.2941C86.3782 10.1503 86.6579 10.0852 86.9375 10.1079C87.1566 10.0915 87.3766 10.1245 87.5812 10.2046C87.7858 10.2847 87.9698 10.4098 88.1194 10.5707C88.2691 10.7315 88.3807 10.924 88.4459 11.1338C88.5111 11.3436 88.5283 11.5654 88.4961 11.7827V14.6977H87.6074V12.0059C87.6074 11.2823 87.293 10.9224 86.6357 10.9224C86.487 10.9155 86.3385 10.9408 86.2004 10.9966C86.0624 11.0525 85.938 11.1375 85.8359 11.2459C85.7338 11.3543 85.6563 11.4834 85.6088 11.6246C85.5612 11.7657 85.5448 11.9154 85.5605 12.0635V14.6978H84.6719V10.1949Z" fill="white"/>
<path d="M93.5186 9.07422V10.2158H94.4941V10.9644H93.5186V13.2798C93.5186 13.7515 93.7129 13.958 94.1553 13.958C94.2685 13.9576 94.3817 13.9508 94.4941 13.9375V14.6777C94.3346 14.7063 94.1729 14.7215 94.0107 14.7231C93.0225 14.7231 92.6289 14.3755 92.6289 13.5073V10.9643H91.9141V10.2158H92.6289V9.07422H93.5186Z" fill="white"/>
<path d="M95.7031 8.4375H96.584V10.919H96.6543C96.7724 10.6596 96.9676 10.443 97.2133 10.2987C97.459 10.1543 97.7433 10.0893 98.0273 10.1123C98.2453 10.1004 98.4631 10.1368 98.6654 10.2189C98.8677 10.3009 99.0494 10.4266 99.1975 10.5869C99.3456 10.7473 99.4565 10.9383 99.5223 11.1465C99.5881 11.3546 99.6071 11.5747 99.5781 11.791V14.6982H98.6885V12.0103C98.6885 11.291 98.3535 10.9268 97.7256 10.9268C97.5729 10.9142 97.4193 10.9352 97.2755 10.9883C97.1317 11.0413 97.0013 11.1252 96.8933 11.2339C96.7853 11.3426 96.7023 11.4737 96.6503 11.6178C96.5982 11.7619 96.5783 11.9157 96.5918 12.0683V14.6982H95.7032L95.7031 8.4375Z" fill="white"/>
<path d="M104.761 13.4815C104.641 13.8931 104.379 14.249 104.022 14.4872C103.666 14.7253 103.237 14.8305 102.81 14.7842C102.514 14.7921 102.219 14.7353 101.946 14.6177C101.674 14.5002 101.43 14.3248 101.232 14.1036C101.034 13.8825 100.887 13.6209 100.8 13.3371C100.713 13.0533 100.69 12.754 100.73 12.46C100.691 12.1652 100.715 11.8652 100.801 11.5805C100.888 11.2959 101.035 11.0331 101.231 10.81C101.428 10.587 101.671 10.4088 101.943 10.2876C102.214 10.1664 102.509 10.105 102.806 10.1075C104.059 10.1075 104.815 10.9635 104.815 12.3775V12.6876H101.635V12.7374C101.621 12.9026 101.642 13.069 101.696 13.2257C101.751 13.3825 101.837 13.5262 101.95 13.6476C102.063 13.7691 102.2 13.8656 102.352 13.931C102.504 13.9964 102.669 14.0292 102.835 14.0274C103.047 14.0529 103.263 14.0146 103.453 13.9174C103.644 13.8202 103.802 13.6685 103.906 13.4815L104.761 13.4815ZM101.635 12.0303H103.91C103.921 11.8792 103.9 11.7274 103.85 11.5847C103.799 11.442 103.718 11.3115 103.614 11.2016C103.51 11.0918 103.383 11.005 103.243 10.9468C103.103 10.8886 102.953 10.8604 102.801 10.8638C102.648 10.8619 102.495 10.8908 102.353 10.9487C102.21 11.0067 102.081 11.0925 101.972 11.2012C101.864 11.3099 101.778 11.4393 101.72 11.5817C101.662 11.7241 101.633 11.8766 101.635 12.0303H101.635Z" fill="white"/>
<path d="M265.664 0H140.664C137.903 0 135.664 2.23858 135.664 5V35C135.664 37.7614 137.903 40 140.664 40H265.664C268.425 40 270.664 37.7614 270.664 35V5C270.664 2.23858 268.425 0 265.664 0Z" fill="black"/>
<path d="M265.664 0.8C266.778 0.8 267.846 1.2425 268.634 2.03015C269.422 2.8178 269.864 3.88609 269.864 5V35C269.864 36.1139 269.422 37.1822 268.634 37.9698C267.846 38.7575 266.778 39.2 265.664 39.2H140.664C139.55 39.2 138.482 38.7575 137.694 37.9698C136.907 37.1822 136.464 36.1139 136.464 35V5C136.464 3.88609 136.907 2.8178 137.694 2.03015C138.482 1.2425 139.55 0.8 140.664 0.8H265.664ZM265.664 0H140.664C139.338 0 138.066 0.526784 137.129 1.46447C136.191 2.40215 135.664 3.67392 135.664 5V35C135.664 36.3261 136.191 37.5979 137.129 38.5355C138.066 39.4732 139.338 40 140.664 40H265.664C266.99 40 268.262 39.4732 269.2 38.5355C270.137 37.5979 270.664 36.3261 270.664 35V5C270.664 3.67392 270.137 2.40215 269.2 1.46447C268.262 0.526784 266.99 0 265.664 0Z" fill="#A6A6A6"/>
<path d="M180.04 10.4868H182.131V13.3879C181.817 13.4942 181.494 13.5734 181.161 13.6252C180.831 13.677 180.461 13.7029 180.052 13.7029C179.43 13.7029 178.905 13.5788 178.477 13.3306C178.051 13.0823 177.728 12.7291 177.507 12.2708C177.286 11.8098 177.176 11.2629 177.176 10.63C177.176 10.0108 177.297 9.47065 177.54 9.00964C177.785 8.54863 178.138 8.19128 178.599 7.93759C179.063 7.68117 179.62 7.55296 180.269 7.55296C180.602 7.55296 180.917 7.58433 181.214 7.64707C181.514 7.70708 181.792 7.79301 182.049 7.90485L181.783 8.51044C181.562 8.41496 181.318 8.33313 181.05 8.26493C180.786 8.19673 180.512 8.16264 180.228 8.16264C179.74 8.16264 179.321 8.26357 178.972 8.46543C178.625 8.66729 178.359 8.95235 178.174 9.32062C177.991 9.68888 177.9 10.1253 177.9 10.63C177.9 11.1292 177.98 11.5643 178.141 11.9353C178.302 12.3035 178.553 12.59 178.894 12.7946C179.235 12.9991 179.674 13.1014 180.212 13.1014C180.482 13.1014 180.714 13.0864 180.907 13.0564C181.101 13.0237 181.277 12.9855 181.435 12.9419V11.1087H180.04V10.4868ZM186.91 13.6211H183.579V7.63889H186.91V8.25266H184.275V10.1881H186.759V10.7937H184.275V13.0073H186.91V13.6211ZM190.073 13.6211H189.373V8.25266H187.491V7.63889H191.947V8.25266H190.073V13.6211ZM195.028 13.6211V7.63889H195.724V13.6211H195.028ZM199.206 13.6211H198.506V8.25266H196.624V7.63889H201.08V8.25266H199.206V13.6211ZM209.349 10.6218C209.349 11.0828 209.291 11.5029 209.173 11.8821C209.056 12.2585 208.882 12.5831 208.65 12.8559C208.42 13.126 208.135 13.3347 207.794 13.482C207.453 13.6293 207.058 13.7029 206.608 13.7029C206.144 13.7029 205.739 13.6293 205.393 13.482C205.049 13.3347 204.762 13.1246 204.533 12.8518C204.307 12.579 204.136 12.2531 204.022 11.8739C203.91 11.4947 203.854 11.0746 203.854 10.6136C203.854 10.0026 203.955 9.46656 204.157 9.00555C204.359 8.54454 204.664 8.18582 205.073 7.9294C205.485 7.67298 206.001 7.54478 206.62 7.54478C207.212 7.54478 207.71 7.67162 208.114 7.92531C208.52 8.179 208.827 8.53635 209.034 8.99736C209.244 9.45564 209.349 9.99713 209.349 10.6218ZM204.586 10.6218C204.586 11.1292 204.659 11.5684 204.803 11.9394C204.948 12.3104 205.169 12.5968 205.466 12.7986C205.766 13.0005 206.147 13.1014 206.608 13.1014C207.072 13.1014 207.451 13.0005 207.745 12.7986C208.043 12.5968 208.262 12.3104 208.404 11.9394C208.546 11.5684 208.617 11.1292 208.617 10.6218C208.617 9.84982 208.455 9.24696 208.13 8.81323C207.808 8.37677 207.305 8.15854 206.62 8.15854C206.156 8.15854 205.774 8.25811 205.474 8.45725C205.174 8.65638 204.951 8.94008 204.803 9.30834C204.659 9.67387 204.586 10.1117 204.586 10.6218ZM215.36 13.6211H214.558L211.297 8.59637H211.264C211.272 8.73003 211.282 8.88279 211.293 9.05465C211.304 9.22378 211.312 9.40518 211.317 9.59886C211.326 9.78981 211.33 9.98485 211.33 10.184V13.6211H210.683V7.63889H211.481L214.73 12.6472H214.759C214.753 12.5518 214.746 12.4167 214.738 12.2422C214.73 12.0648 214.722 11.8753 214.714 11.6734C214.708 11.4688 214.705 11.2792 214.705 11.1046V7.63889H215.36V13.6211Z" fill="white"/>
<path d="M180.04 10.4868V10.3868H179.94V10.4868H180.04ZM182.131 10.4868H182.231V10.3868H182.131V10.4868ZM182.131 13.3879L182.163 13.4826L182.231 13.4595V13.3879H182.131ZM181.161 13.6252L181.146 13.5264L181.145 13.5264L181.161 13.6252ZM178.477 13.3306L178.426 13.417L178.427 13.4171L178.477 13.3306ZM177.507 12.2708L177.417 12.314L177.417 12.3142L177.507 12.2708ZM177.54 9.00964L177.451 8.96263L177.451 8.96304L177.54 9.00964ZM178.599 7.93759L178.648 8.0252L178.648 8.0251L178.599 7.93759ZM181.214 7.64707L181.193 7.74492L181.195 7.74513L181.214 7.64707ZM182.049 7.90485L182.14 7.94507L182.181 7.85327L182.089 7.81319L182.049 7.90485ZM181.783 8.51044L181.743 8.60224L181.834 8.64167L181.874 8.55065L181.783 8.51044ZM181.05 8.26493L181.026 8.36177L181.026 8.36183L181.05 8.26493ZM178.972 8.46543L178.922 8.37886L178.921 8.37903L178.972 8.46543ZM178.174 9.32062L178.085 9.27563L178.084 9.27616L178.174 9.32062ZM178.141 11.9353L178.049 11.9751L178.05 11.9753L178.141 11.9353ZM178.894 12.7946L178.843 12.8803L178.894 12.7946ZM180.907 13.0564L180.923 13.1553L180.924 13.155L180.907 13.0564ZM181.435 12.9419L181.462 13.0383L181.535 13.018V12.9419H181.435ZM181.435 11.1087H181.535V11.0087H181.435V11.1087ZM180.04 11.1087H179.94V11.2087H180.04V11.1087ZM180.04 10.5868H182.131V10.3868H180.04V10.5868ZM182.031 10.4868V13.3879H182.231V10.4868H182.031ZM182.099 13.2932C181.79 13.3977 181.473 13.4754 181.146 13.5264L181.176 13.724C181.515 13.6713 181.844 13.5908 182.163 13.4826L182.099 13.2932ZM181.145 13.5264C180.821 13.5773 180.457 13.6029 180.052 13.6029V13.8029C180.465 13.8029 180.84 13.7768 181.176 13.724L181.145 13.5264ZM180.052 13.6029C179.443 13.6029 178.936 13.4815 178.527 13.2441L178.427 13.4171C178.874 13.6762 179.417 13.8029 180.052 13.8029V13.6029ZM178.527 13.2442C178.119 13.0063 177.81 12.6683 177.597 12.2274L177.417 12.3142C177.646 12.7898 177.983 13.1583 178.426 13.417L178.527 13.2442ZM177.597 12.2276C177.384 11.7829 177.276 11.2514 177.276 10.63H177.076C177.076 11.2743 177.188 11.8367 177.417 12.314L177.597 12.2276ZM177.276 10.63C177.276 10.024 177.394 9.5004 177.628 9.05623L177.451 8.96304C177.2 9.44089 177.076 9.99758 177.076 10.63H177.276ZM177.628 9.05664C177.864 8.61291 178.204 8.2696 178.648 8.0252L178.551 7.84998C178.073 8.11295 177.706 8.48435 177.451 8.96263L177.628 9.05664ZM178.648 8.0251C179.094 7.77852 179.633 7.65296 180.269 7.65296V7.45296C179.607 7.45296 179.033 7.58381 178.551 7.85008L178.648 8.0251ZM180.269 7.65296C180.595 7.65296 180.904 7.68374 181.193 7.74492L181.235 7.54922C180.93 7.48492 180.608 7.45296 180.269 7.45296V7.65296ZM181.195 7.74513C181.488 7.80387 181.76 7.88778 182.009 7.99651L182.089 7.81319C181.825 7.69825 181.54 7.6103 181.234 7.54901L181.195 7.74513ZM181.957 7.86464L181.691 8.47023L181.874 8.55065L182.14 7.94507L181.957 7.86464ZM181.823 8.41864C181.596 8.3208 181.347 8.23735 181.075 8.16803L181.026 8.36183C181.289 8.42891 181.528 8.50913 181.743 8.60224L181.823 8.41864ZM181.075 8.1681C180.802 8.09772 180.52 8.06264 180.228 8.06264V8.26264C180.504 8.26264 180.769 8.29575 181.026 8.36177L181.075 8.1681ZM180.228 8.06264C179.726 8.06264 179.289 8.16652 178.922 8.37886L179.022 8.552C179.353 8.36062 179.754 8.26264 180.228 8.26264V8.06264ZM178.921 8.37903C178.558 8.59092 178.279 8.8906 178.085 9.27563L178.263 9.3656C178.44 9.01411 178.693 8.74366 179.022 8.55183L178.921 8.37903ZM178.084 9.27616C177.893 9.66102 177.8 10.1134 177.8 10.63H178C178 10.1373 178.089 9.71673 178.264 9.36507L178.084 9.27616ZM177.8 10.63C177.8 11.1398 177.882 11.5889 178.049 11.9751L178.233 11.8955C178.079 11.5396 178 11.1186 178 10.63H177.8ZM178.05 11.9753C178.219 12.3624 178.484 12.6649 178.843 12.8803L178.946 12.7088C178.623 12.515 178.386 12.2447 178.233 11.8952L178.05 11.9753ZM178.843 12.8803C179.204 13.0969 179.662 13.2014 180.212 13.2014V13.0014C179.686 13.0014 179.266 12.9013 178.946 12.7088L178.843 12.8803ZM180.212 13.2014C180.485 13.2014 180.722 13.1863 180.923 13.1552L180.892 12.9576C180.705 12.9866 180.478 13.0014 180.212 13.0014V13.2014ZM180.924 13.155C181.12 13.1218 181.3 13.083 181.462 13.0383L181.409 12.8455C181.254 12.888 181.082 12.9255 180.891 12.9578L180.924 13.155ZM181.535 12.9419V11.1087H181.335V12.9419H181.535ZM181.435 11.0087H180.04V11.2087H181.435V11.0087ZM180.14 11.1087V10.4868H179.94V11.1087H180.14ZM186.91 13.6211V13.7211H187.01V13.6211H186.91ZM183.579 13.6211H183.479V13.7211H183.579V13.6211ZM183.579 7.63889V7.53889H183.479V7.63889H183.579ZM186.91 7.63889H187.01V7.53889H186.91V7.63889ZM186.91 8.25266V8.35266H187.01V8.25266H186.91ZM184.275 8.25266V8.15266H184.175V8.25266H184.275ZM184.275 10.1881H184.175V10.2881H184.275V10.1881ZM186.759 10.1881H186.859V10.0881H186.759V10.1881ZM186.759 10.7937V10.8937H186.859V10.7937H186.759ZM184.275 10.7937V10.6937H184.175V10.7937H184.275ZM184.275 13.0073H184.175V13.1073H184.275V13.0073ZM186.91 13.0073H187.01V12.9073H186.91V13.0073ZM186.91 13.5211H183.579V13.7211H186.91V13.5211ZM183.679 13.6211V7.63889H183.479V13.6211H183.679ZM183.579 7.73889H186.91V7.53889H183.579V7.73889ZM186.81 7.63889V8.25266H187.01V7.63889H186.81ZM186.91 8.15266H184.275V8.35266H186.91V8.15266ZM184.175 8.25266V10.1881H184.375V8.25266H184.175ZM184.275 10.2881H186.759V10.0881H184.275V10.2881ZM186.659 10.1881V10.7937H186.859V10.1881H186.659ZM186.759 10.6937H184.275V10.8937H186.759V10.6937ZM184.175 10.7937V13.0073H184.375V10.7937H184.175ZM184.275 13.1073H186.91V12.9073H184.275V13.1073ZM186.81 13.0073V13.6211H187.01V13.0073H186.81ZM190.073 13.6211V13.7211H190.173V13.6211H190.073ZM189.373 13.6211H189.273V13.7211H189.373V13.6211ZM189.373 8.25266H189.473V8.15266H189.373V8.25266ZM187.491 8.25266H187.391V8.35266H187.491V8.25266ZM187.491 7.63889V7.53889H187.391V7.63889H187.491ZM191.947 7.63889H192.047V7.53889H191.947V7.63889ZM191.947 8.25266V8.35266H192.047V8.25266H191.947ZM190.073 8.25266V8.15266H189.973V8.25266H190.073ZM190.073 13.5211H189.373V13.7211H190.073V13.5211ZM189.473 13.6211V8.25266H189.273V13.6211H189.473ZM189.373 8.15266H187.491V8.35266H189.373V8.15266ZM187.591 8.25266V7.63889H187.391V8.25266H187.591ZM187.491 7.73889H191.947V7.53889H187.491V7.73889ZM191.847 7.63889V8.25266H192.047V7.63889H191.847ZM191.947 8.15266H190.073V8.35266H191.947V8.15266ZM189.973 8.25266V13.6211H190.173V8.25266H189.973ZM195.028 13.6211H194.928V13.7211H195.028V13.6211ZM195.028 7.63889V7.53889H194.928V7.63889H195.028ZM195.724 7.63889H195.824V7.53889H195.724V7.63889ZM195.724 13.6211V13.7211H195.824V13.6211H195.724ZM195.128 13.6211V7.63889H194.928V13.6211H195.128ZM195.028 7.73889H195.724V7.53889H195.028V7.73889ZM195.624 7.63889V13.6211H195.824V7.63889H195.624ZM195.724 13.5211H195.028V13.7211H195.724V13.5211ZM199.206 13.6211V13.7211H199.306V13.6211H199.206ZM198.506 13.6211H198.406V13.7211H198.506V13.6211ZM198.506 8.25266H198.606V8.15266H198.506V8.25266ZM196.624 8.25266H196.524V8.35266H196.624V8.25266ZM196.624 7.63889V7.53889H196.524V7.63889H196.624ZM201.08 7.63889H201.18V7.53889H201.08V7.63889ZM201.08 8.25266V8.35266H201.18V8.25266H201.08ZM199.206 8.25266V8.15266H199.106V8.25266H199.206ZM199.206 13.5211H198.506V13.7211H199.206V13.5211ZM198.606 13.6211V8.25266H198.406V13.6211H198.606ZM198.506 8.15266H196.624V8.35266H198.506V8.15266ZM196.724 8.25266V7.63889H196.524V8.25266H196.724ZM196.624 7.73889H201.08V7.53889H196.624V7.73889ZM200.98 7.63889V8.25266H201.18V7.63889H200.98ZM201.08 8.15266H199.206V8.35266H201.08V8.15266ZM199.106 8.25266V13.6211H199.306V8.25266H199.106ZM209.173 11.8821L209.269 11.9118L209.269 11.9116L209.173 11.8821ZM208.65 12.8559L208.573 12.7912L208.573 12.7912L208.65 12.8559ZM207.794 13.482L207.834 13.5738L207.794 13.482ZM205.393 13.482L205.353 13.5739L205.353 13.574L205.393 13.482ZM204.533 12.8518L204.456 12.9157L204.457 12.9162L204.533 12.8518ZM204.022 11.8739L203.926 11.9022L203.926 11.9028L204.022 11.8739ZM205.073 7.9294L205.021 7.84451L205.02 7.84467L205.073 7.9294ZM208.114 7.92531L208.06 8.00998L208.061 8.01014L208.114 7.92531ZM209.034 8.99736L208.943 9.03838L208.943 9.03903L209.034 8.99736ZM205.466 12.7986L205.41 12.8814L205.41 12.8816L205.466 12.7986ZM207.745 12.7986L207.689 12.7159L207.689 12.7161L207.745 12.7986ZM208.13 8.81323L208.049 8.87259L208.05 8.87315L208.13 8.81323ZM205.474 8.45725L205.419 8.37392L205.474 8.45725ZM204.803 9.30834L204.711 9.2712L204.71 9.27156L204.803 9.30834ZM209.249 10.6218C209.249 11.0744 209.192 11.4843 209.078 11.8525L209.269 11.9116C209.39 11.5215 209.449 11.0913 209.449 10.6218H209.249ZM209.078 11.8523C208.964 12.2172 208.796 12.5296 208.573 12.7912L208.726 12.9207C208.967 12.6367 209.148 12.2998 209.269 11.9118L209.078 11.8523ZM208.573 12.7912C208.355 13.049 208.082 13.2487 207.755 13.3902L207.834 13.5738C208.189 13.4207 208.486 13.203 208.726 12.9206L208.573 12.7912ZM207.755 13.3902C207.429 13.5311 207.047 13.6029 206.608 13.6029V13.8029C207.069 13.8029 207.478 13.7275 207.834 13.5738L207.755 13.3902ZM206.608 13.6029C206.155 13.6029 205.763 13.5309 205.432 13.3899L205.353 13.574C205.715 13.7276 206.134 13.8029 206.608 13.8029V13.6029ZM205.432 13.3901C205.102 13.2486 204.828 13.0477 204.61 12.7875L204.457 12.9162C204.696 13.2015 204.996 13.4207 205.353 13.5739L205.432 13.3901ZM204.61 12.788C204.393 12.5266 204.229 12.2129 204.118 11.845L203.926 11.9028C204.044 12.2933 204.22 12.6315 204.456 12.9157L204.61 12.788ZM204.118 11.8456C204.009 11.477 203.954 11.0666 203.954 10.6136H203.754C203.754 11.0827 203.811 11.5125 203.926 11.9022L204.118 11.8456ZM203.954 10.6136C203.954 10.0135 204.053 9.49162 204.248 9.04566L204.065 8.96544C203.857 9.4415 203.754 9.99167 203.754 10.6136H203.954ZM204.248 9.04566C204.443 8.60223 204.735 8.25942 205.127 8.01414L205.02 7.84467C204.593 8.11222 204.275 8.48684 204.065 8.96544L204.248 9.04566ZM205.126 8.0143C205.518 7.77014 206.014 7.64478 206.62 7.64478V7.44478C205.987 7.44478 205.452 7.57583 205.021 7.84451L205.126 8.0143ZM206.62 7.64478C207.198 7.64478 207.676 7.76847 208.06 8.00998L208.167 7.84064C207.744 7.57477 207.226 7.44478 206.62 7.44478V7.64478ZM208.061 8.01014C208.449 8.25275 208.743 8.59439 208.943 9.03838L209.125 8.95635C208.91 8.47831 208.591 8.10526 208.167 7.84048L208.061 8.01014ZM208.943 9.03903C209.146 9.4815 209.249 10.0082 209.249 10.6218H209.449C209.449 9.98609 209.342 9.42979 209.125 8.9557L208.943 9.03903ZM204.486 10.6218C204.486 11.1384 204.56 11.5904 204.71 11.9757L204.897 11.9031C204.758 11.5463 204.686 11.12 204.686 10.6218H204.486ZM204.71 11.9757C204.861 12.3634 205.094 12.6669 205.41 12.8814L205.522 12.7159C205.244 12.5266 205.035 12.2573 204.897 11.9031L204.71 11.9757ZM205.41 12.8816C205.731 13.0973 206.132 13.2014 206.608 13.2014V13.0014C206.161 13.0014 205.802 12.9037 205.522 12.7157L205.41 12.8816ZM206.608 13.2014C207.086 13.2014 207.486 13.0974 207.802 12.8811L207.689 12.7161C207.415 12.9036 207.057 13.0014 206.608 13.0014V13.2014ZM207.802 12.8814C208.118 12.6668 208.349 12.3631 208.498 11.9751L208.311 11.9037C208.175 12.2576 207.968 12.5267 207.689 12.7159L207.802 12.8814ZM208.498 11.9751C208.645 11.59 208.717 11.1382 208.717 10.6218H208.517C208.517 11.1202 208.447 11.5467 208.311 11.9037L208.498 11.9751ZM208.717 10.6218C208.717 9.83712 208.552 9.21031 208.21 8.75331L208.05 8.87315C208.357 9.28361 208.517 9.86253 208.517 10.6218H208.717ZM208.21 8.75388C207.865 8.28523 207.327 8.05854 206.62 8.05854V8.25854C207.282 8.25854 207.751 8.46831 208.05 8.87259L208.21 8.75388ZM206.62 8.05854C206.142 8.05854 205.74 8.16118 205.419 8.37392L205.53 8.54057C205.809 8.35505 206.17 8.25854 206.62 8.25854V8.05854ZM205.419 8.37392C205.1 8.58542 204.865 8.88609 204.711 9.2712L204.896 9.34548C205.037 8.99407 205.248 8.72734 205.53 8.54057L205.419 8.37392ZM204.71 9.27156C204.56 9.65172 204.486 10.1027 204.486 10.6218H204.686C204.686 10.1207 204.758 9.69603 204.896 9.34512L204.71 9.27156ZM215.36 13.6211V13.7211H215.46V13.6211H215.36ZM214.558 13.6211L214.474 13.6755L214.504 13.7211H214.558V13.6211ZM211.297 8.59637L211.381 8.54193L211.351 8.49637H211.297V8.59637ZM211.264 8.59637V8.49637H211.158L211.164 8.60248L211.264 8.59637ZM211.293 9.05465L211.193 9.06098L211.193 9.06109L211.293 9.05465ZM211.317 9.59886L211.218 9.60167L211.218 9.60314L211.317 9.59886ZM211.33 13.6211V13.7211H211.43V13.6211H211.33ZM210.683 13.6211H210.583V13.7211H210.683V13.6211ZM210.683 7.63889V7.53889H210.583V7.63889H210.683ZM211.481 7.63889L211.565 7.58446L211.535 7.53889H211.481V7.63889ZM214.73 12.6472L214.646 12.7017L214.676 12.7472H214.73V12.6472ZM214.759 12.6472V12.7472H214.865L214.859 12.6415L214.759 12.6472ZM214.738 12.2422L214.638 12.2468L214.638 12.2468L214.738 12.2422ZM214.714 11.6734L214.614 11.6761L214.614 11.6774L214.714 11.6734ZM214.705 7.63889V7.53889H214.605V7.63889H214.705ZM215.36 7.63889H215.46V7.53889H215.36V7.63889ZM215.36 13.5211H214.558V13.7211H215.36V13.5211ZM214.642 13.5667L211.381 8.54193L211.213 8.65081L214.474 13.6755L214.642 13.5667ZM211.297 8.49637H211.264V8.69637H211.297V8.49637ZM211.164 8.60248C211.173 8.73624 211.182 8.88907 211.193 9.06098L211.393 9.04831C211.382 8.87651 211.372 8.72383 211.364 8.59026L211.164 8.60248ZM211.193 9.06109C211.204 9.22885 211.212 9.40904 211.218 9.60167L211.417 9.59604C211.412 9.40132 211.404 9.2187 211.393 9.04821L211.193 9.06109ZM211.218 9.60314C211.226 9.79261 211.23 9.98622 211.23 10.184H211.43C211.43 9.98348 211.426 9.78701 211.417 9.59458L211.218 9.60314ZM211.23 10.184V13.6211H211.43V10.184H211.23ZM211.33 13.5211H210.683V13.7211H211.33V13.5211ZM210.783 13.6211V7.63889H210.583V13.6211H210.783ZM210.683 7.73889H211.481V7.53889H210.683V7.73889ZM211.397 7.69331L214.646 12.7017L214.814 12.5928L211.565 7.58446L211.397 7.69331ZM214.73 12.7472H214.759V12.5472H214.73V12.7472ZM214.859 12.6415C214.853 12.5466 214.846 12.4119 214.838 12.2375L214.638 12.2468C214.647 12.4215 214.653 12.557 214.659 12.653L214.859 12.6415ZM214.838 12.2375C214.83 12.0604 214.822 11.871 214.814 11.6693L214.614 11.6774C214.622 11.8795 214.63 12.0692 214.638 12.2468L214.838 12.2375ZM214.814 11.6707C214.808 11.4669 214.805 11.2782 214.805 11.1046H214.605C214.605 11.2802 214.608 11.4707 214.614 11.6761L214.814 11.6707ZM214.805 11.1046V7.63889H214.605V11.1046H214.805ZM214.705 7.73889H215.36V7.53889H214.705V7.73889ZM215.26 7.63889V13.6211H215.46V7.63889H215.26Z" fill="white"/>
<path d="M203.806 21.7499C202.964 21.7519 202.141 22.0037 201.441 22.4734C200.742 22.9432 200.197 23.6098 199.877 24.3889C199.556 25.1681 199.474 26.0248 199.64 26.8508C199.806 27.6768 200.214 28.4349 200.811 29.0293C201.408 29.6236 202.168 30.0276 202.995 30.19C203.822 30.3524 204.678 30.2661 205.456 29.9418C206.233 29.6175 206.897 29.07 207.364 28.3683C207.83 27.6667 208.078 26.8425 208.076 25.9999C208.084 25.4379 207.979 24.8799 207.767 24.3593C207.555 23.8386 207.241 23.366 206.842 22.9694C206.444 22.5729 205.97 22.2606 205.448 22.051C204.927 21.8415 204.368 21.7391 203.806 21.7499V21.7499ZM203.806 28.5799C203.29 28.616 202.774 28.496 202.327 28.2353C201.88 27.9747 201.521 27.5855 201.298 27.1184C201.075 26.6512 200.998 26.1278 201.076 25.6161C201.154 25.1043 201.384 24.628 201.737 24.249C202.09 23.8699 202.548 23.6057 203.053 23.4907C203.558 23.3757 204.085 23.4152 204.567 23.604C205.049 23.7929 205.463 24.1223 205.756 24.5496C206.048 24.9769 206.205 25.4822 206.206 25.9999C206.222 26.3279 206.172 26.6559 206.06 26.9643C205.947 27.2728 205.774 27.5556 205.55 27.7961C205.327 28.0366 205.057 28.2298 204.757 28.3644C204.458 28.499 204.134 28.5723 203.806 28.5799ZM194.486 21.7499C193.644 21.7519 192.821 22.0037 192.121 22.4734C191.422 22.9432 190.877 23.6098 190.557 24.3889C190.236 25.1681 190.154 26.0248 190.32 26.8508C190.486 27.6768 190.894 28.4349 191.491 29.0293C192.088 29.6236 192.848 30.0276 193.675 30.19C194.502 30.3524 195.358 30.2661 196.136 29.9418C196.913 29.6175 197.577 29.07 198.044 28.3683C198.51 27.6667 198.758 26.8425 198.756 25.9999C198.764 25.4379 198.659 24.8799 198.447 24.3593C198.235 23.8386 197.921 23.366 197.522 22.9694C197.124 22.5729 196.65 22.2606 196.128 22.051C195.607 21.8415 195.048 21.7391 194.486 21.7499V21.7499ZM194.486 28.5799C193.97 28.616 193.454 28.496 193.007 28.2353C192.56 27.9747 192.201 27.5855 191.978 27.1184C191.755 26.6512 191.678 26.1278 191.756 25.6161C191.834 25.1043 192.064 24.628 192.417 24.249C192.77 23.8699 193.228 23.6057 193.733 23.4907C194.238 23.3757 194.765 23.4152 195.247 23.604C195.729 23.7929 196.143 24.1223 196.436 24.5496C196.728 24.9769 196.885 25.4822 196.886 25.9999C196.902 26.3279 196.852 26.6559 196.74 26.9643C196.627 27.2728 196.454 27.5556 196.23 27.7961C196.007 28.0366 195.737 28.2298 195.437 28.3644C195.138 28.499 194.814 28.5723 194.486 28.5799ZM183.406 23.0599V24.8599H187.726C187.658 25.7077 187.306 26.5077 186.726 27.1299C186.293 27.5714 185.772 27.9171 185.196 28.1444C184.621 28.3718 184.004 28.4759 183.386 28.4499C182.113 28.4499 180.892 27.9442 179.992 27.044C179.092 26.1439 178.586 24.923 178.586 23.6499C178.586 22.3769 179.092 21.156 179.992 20.2558C180.892 19.3556 182.113 18.8499 183.386 18.8499C184.607 18.8318 185.785 19.2952 186.666 20.1399L187.936 18.8699C187.34 18.2804 186.632 17.8158 185.855 17.5033C185.077 17.1908 184.244 17.0366 183.406 17.0499C182.517 17.0153 181.63 17.1605 180.799 17.4769C179.967 17.7932 179.208 18.2742 178.567 18.8909C177.926 19.5077 177.416 20.2475 177.067 21.0661C176.719 21.8847 176.539 22.7652 176.539 23.6549C176.539 24.5446 176.719 25.4251 177.067 26.2437C177.416 27.0623 177.926 27.8022 178.567 28.4189C179.208 29.0357 179.967 29.5166 180.799 29.833C181.63 30.1493 182.517 30.2945 183.406 30.2599C184.262 30.2941 185.115 30.1469 185.909 29.8281C186.704 29.5092 187.422 29.0259 188.016 28.4099C189.066 27.2563 189.626 25.7391 189.576 24.1799C189.58 23.8046 189.55 23.4298 189.486 23.0599H183.406ZM228.716 24.4599C228.455 23.6927 227.968 23.0227 227.318 22.5388C226.668 22.0548 225.886 21.7797 225.076 21.7499C224.529 21.7489 223.988 21.86 223.485 22.0765C222.983 22.2929 222.53 22.6101 222.155 23.0085C221.781 23.4068 221.491 23.8778 221.306 24.3923C221.12 24.9068 221.042 25.454 221.076 25.9999C221.068 26.9128 221.355 27.8039 221.894 28.5402C222.434 29.2765 223.197 29.8184 224.07 30.0851C224.943 30.3517 225.879 30.3288 226.738 30.0196C227.597 29.7105 228.333 29.1318 228.836 28.3699L227.386 27.3699C227.17 27.7302 226.863 28.0277 226.497 28.2329C226.13 28.4382 225.716 28.544 225.296 28.5399C224.863 28.5578 224.434 28.4442 224.066 28.214C223.699 27.9837 223.409 27.6477 223.236 27.2499L228.926 24.8999L228.716 24.4599ZM222.916 25.8799C222.896 25.5693 222.938 25.2578 223.039 24.9635C223.141 24.6693 223.3 24.3983 223.508 24.1664C223.716 23.9346 223.968 23.7464 224.249 23.6131C224.53 23.4798 224.835 23.4039 225.146 23.3899C225.468 23.3703 225.789 23.4461 226.068 23.608C226.348 23.7699 226.573 24.0106 226.716 24.2999L222.916 25.8799ZM218.296 29.9999H220.166V17.4999H218.296V29.9999ZM215.236 22.6999H215.166C214.887 22.3818 214.542 22.1277 214.155 21.9551C213.769 21.7825 213.349 21.6955 212.926 21.6999C211.833 21.7529 210.803 22.2243 210.048 23.0165C209.293 23.8087 208.872 24.8608 208.872 25.9549C208.872 27.049 209.293 28.1012 210.048 28.8933C210.803 29.6855 211.833 30.1569 212.926 30.2099C213.35 30.2184 213.771 30.1332 214.158 29.9603C214.545 29.7875 214.889 29.5312 215.166 29.2099H215.236V29.8199C215.236 31.4499 214.366 32.3199 212.966 32.3199C212.498 32.3096 212.044 32.1606 211.662 31.8918C211.279 31.6229 210.984 31.2464 210.816 30.8099L209.196 31.4799C209.496 32.2322 210.016 32.8758 210.69 33.3258C211.363 33.7757 212.157 34.0108 212.966 33.9999C215.156 33.9999 216.966 32.7099 216.966 29.5699V21.9999H215.236V22.6999ZM213.086 28.5799C212.431 28.5391 211.816 28.25 211.366 27.7716C210.917 27.2932 210.667 26.6614 210.667 26.0049C210.667 25.3485 210.917 24.7167 211.366 24.2383C211.816 23.7598 212.431 23.4708 213.086 23.4299C213.406 23.4437 213.721 23.5218 214.01 23.6596C214.299 23.7973 214.558 23.9918 214.771 24.2316C214.984 24.4714 215.146 24.7515 215.248 25.0553C215.35 25.3591 215.391 25.6803 215.366 25.9999C215.393 26.3206 215.355 26.6435 215.254 26.9491C215.153 27.2546 214.991 27.5365 214.778 27.7777C214.565 28.0189 214.305 28.2143 214.014 28.3522C213.723 28.4901 213.408 28.5676 213.086 28.5799V28.5799ZM237.476 17.4999H232.996V29.9999H234.866V25.2599H237.476C238.009 25.2982 238.544 25.2263 239.048 25.0487C239.552 24.871 240.014 24.5915 240.405 24.2274C240.796 23.8634 241.108 23.4227 241.321 22.9328C241.535 22.4428 241.645 21.9142 241.645 21.3799C241.645 20.8456 241.535 20.317 241.321 19.8271C241.108 19.3372 240.796 18.8965 240.405 18.5324C240.014 18.1684 239.552 17.8888 239.048 17.7112C238.544 17.5336 238.009 17.4616 237.476 17.4999V17.4999ZM237.476 23.4999H234.866V19.2399H237.516C237.797 19.2399 238.075 19.2953 238.335 19.4028C238.595 19.5104 238.831 19.668 239.029 19.8667C239.228 20.0654 239.386 20.3013 239.493 20.561C239.601 20.8206 239.656 21.0989 239.656 21.3799C239.656 21.661 239.601 21.9392 239.493 22.1989C239.386 22.4585 239.228 22.6944 239.029 22.8931C238.831 23.0918 238.595 23.2495 238.335 23.357C238.075 23.4646 237.797 23.5199 237.516 23.5199L237.476 23.4999ZM249.016 21.7099C248.335 21.6679 247.657 21.8265 247.065 22.1659C246.473 22.5054 245.994 23.0109 245.686 23.6199L247.336 24.3099C247.503 24.0093 247.753 23.7634 248.056 23.602C248.36 23.4405 248.704 23.3703 249.046 23.3999C249.283 23.3722 249.524 23.392 249.754 23.4582C249.983 23.5245 250.197 23.6358 250.384 23.7856C250.57 23.9355 250.724 24.1209 250.838 24.3311C250.952 24.5413 251.022 24.7721 251.046 25.0099V25.1299C250.445 24.8138 249.775 24.6491 249.096 24.6499C247.316 24.6499 245.496 25.6499 245.496 27.4699C245.514 27.8568 245.609 28.2361 245.776 28.5855C245.943 28.9348 246.179 29.247 246.469 29.5035C246.759 29.7601 247.098 29.9557 247.465 30.0787C247.832 30.2018 248.22 30.2498 248.606 30.2199C249.075 30.2459 249.543 30.1466 249.961 29.9322C250.38 29.7178 250.733 29.3961 250.986 28.9999H251.046V29.9999H252.846V25.1899C252.846 22.9999 251.186 21.7299 249.056 21.7299L249.016 21.7099ZM248.786 28.5599C248.176 28.5599 247.326 28.2499 247.326 27.4999C247.326 26.4999 248.386 26.1599 249.326 26.1599C249.92 26.1453 250.507 26.2903 251.026 26.5799C250.963 27.123 250.706 27.6249 250.301 27.9926C249.897 28.3604 249.373 28.569 248.826 28.5799L248.786 28.5599ZM259.406 21.9999L257.266 27.4199H257.206L254.986 21.9999H252.986L256.316 29.5799L254.416 33.7899H256.366L261.486 21.9999H259.406ZM242.606 29.9999H244.466V17.4999H242.606V29.9999Z" fill="white"/>
<path d="M156.384 19.4199L145.734 30.7199C145.851 31.1473 146.064 31.5423 146.357 31.8742C146.65 32.2062 147.016 32.4663 147.426 32.6345C147.836 32.8026 148.278 32.8744 148.72 32.8441C149.162 32.8138 149.591 32.6824 149.974 32.4599V32.4599L161.974 25.5399L156.384 19.4199Z" fill="#EA4335"/>
<path d="M167.156 17.5L161.976 14.5L156.156 19.69L161.996 25.54L167.146 22.54C167.604 22.2948 167.987 21.93 168.254 21.4845C168.52 21.0389 168.661 20.5293 168.661 20.01C168.661 19.4907 168.52 18.9811 168.254 18.5355C167.987 18.09 167.604 17.7252 167.146 17.48L167.156 17.5Z" fill="#FBBC04"/>
<path d="M145.735 9.28125C145.682 9.51745 145.659 9.75928 145.665 10.0012V30.0012C145.667 30.2512 145.7 30.4998 145.765 30.7413L156.765 19.7412L145.735 9.28125Z" fill="#4285F4"/>
<path d="M156.463 20.0006L161.973 14.4906L149.973 7.55062C149.522 7.28263 149.008 7.141 148.483 7.14062C147.85 7.14244 147.236 7.35179 146.734 7.73656C146.232 8.12133 145.869 8.66025 145.703 9.27063V9.27063L156.463 20.0006Z" fill="#34A853"/>
</svg>
