<svg width="45" height="20" viewBox="0 0 45 20" fill="none" xmlns="http://www.w3.org/2000/svg">
<rect width="45" height="20" rx="4" fill="#F3E8FF"/>
<path d="M12.0312 10.5098H9.86914L9.85742 9.60156H11.8203C12.1445 9.60156 12.4277 9.54688 12.6699 9.4375C12.9121 9.32812 13.0996 9.17188 13.2324 8.96875C13.3691 8.76172 13.4375 8.51562 13.4375 8.23047C13.4375 7.91797 13.377 7.66406 13.2559 7.46875C13.1387 7.26953 12.957 7.125 12.7109 7.03516C12.4688 6.94141 12.1602 6.89453 11.7852 6.89453H10.1211V14.5H8.99023V5.96875H11.7852C12.2227 5.96875 12.6133 6.01367 12.957 6.10352C13.3008 6.18945 13.5918 6.32617 13.8301 6.51367C14.0723 6.69727 14.2559 6.93164 14.3809 7.2168C14.5059 7.50195 14.5684 7.84375 14.5684 8.24219C14.5684 8.59375 14.4785 8.91211 14.2988 9.19727C14.1191 9.47852 13.8691 9.70898 13.5488 9.88867C13.2324 10.0684 12.8613 10.1836 12.4355 10.2344L12.0312 10.5098ZM11.9785 14.5H9.42383L10.0625 13.5801H11.9785C12.3379 13.5801 12.6426 13.5176 12.8926 13.3926C13.1465 13.2676 13.3398 13.0918 13.4727 12.8652C13.6055 12.6348 13.6719 12.3633 13.6719 12.0508C13.6719 11.7344 13.6152 11.4609 13.502 11.2305C13.3887 11 13.2109 10.8223 12.9688 10.6973C12.7266 10.5723 12.4141 10.5098 12.0312 10.5098H10.4199L10.4316 9.60156H12.6348L12.875 9.92969C13.2852 9.96484 13.6328 10.082 13.918 10.2812C14.2031 10.4766 14.4199 10.7266 14.5684 11.0312C14.7207 11.3359 14.7969 11.6719 14.7969 12.0391C14.7969 12.5703 14.6797 13.0195 14.4453 13.3867C14.2148 13.75 13.8887 14.0273 13.4668 14.2188C13.0449 14.4062 12.5488 14.5 11.9785 14.5ZM21.8867 13.5801V14.5H17.3691V13.5801H21.8867ZM17.5977 5.96875V14.5H16.4668V5.96875H17.5977ZM21.2891 9.63672V10.5566H17.3691V9.63672H21.2891ZM21.8281 5.96875V6.89453H17.3691V5.96875H21.8281ZM26.5566 5.96875V14.5H25.4434V5.96875H26.5566ZM29.2988 5.96875V6.89453H22.707V5.96875H29.2988ZM33.2539 6.72461L30.4297 14.5H29.2754L32.5273 5.96875H33.2715L33.2539 6.72461ZM35.6211 14.5L32.791 6.72461L32.7734 5.96875H33.5176L36.7812 14.5H35.6211ZM35.4746 11.3418V12.2676H30.6816V11.3418H35.4746Z" fill="#6B21A8"/>
</svg>
