<svg width="981" height="177" viewBox="0 0 981 177" fill="none" xmlns="http://www.w3.org/2000/svg">
<path d="M16.6229 5.5H25.6217L22.0096 15.5943C15.652 16.7115 10.7894 22.8625 10.7894 30.283C10.7894 33.6305 11.779 36.7197 13.4489 39.2049H1.5L12.4236 8.67808C13.1104 6.75863 14.7735 5.5 16.6229 5.5Z" fill="#7C3AED"/>
<path d="M31.3191 5.5H22.3203L25.9172 15.5517C32.4013 16.5452 37.3964 22.762 37.3964 30.283C37.3964 33.6305 36.4068 36.7197 34.7369 39.2049H46.442L35.5184 8.67809C34.8316 6.75863 33.1685 5.5 31.3191 5.5Z" fill="#4C1D95"/>
<path d="M15.0173 38.2341C13.4795 36.0441 12.5625 33.2836 12.5625 30.2836C12.5625 23.1662 17.7241 17.3965 24.0912 17.3965C30.4584 17.3965 35.62 23.1662 35.62 30.2836C35.62 33.2836 34.703 36.0441 33.1652 38.2341C30.6407 36.3547 27.4979 35.2402 24.0912 35.2402C20.6846 35.2402 17.5418 36.3547 15.0173 38.2341Z" fill="#4C1D95"/>
<path d="M66.4609 17.3555L61.8203 31.5H58.082L64.4219 14.4375H66.8008L66.4609 17.3555ZM70.3164 31.5L65.6641 17.3555L65.2891 14.4375H67.6914L74.0664 31.5H70.3164ZM70.1055 25.1484V27.9023H61.0938V25.1484H70.1055ZM82.293 27.9961C82.293 27.7539 82.2227 27.5352 82.082 27.3398C81.9414 27.1445 81.6797 26.9648 81.2969 26.8008C80.9219 26.6289 80.3789 26.4727 79.668 26.332C79.0273 26.1914 78.4297 26.0156 77.875 25.8047C77.3281 25.5859 76.8516 25.3242 76.4453 25.0195C76.0469 24.7148 75.7344 24.3555 75.5078 23.9414C75.2812 23.5195 75.168 23.0391 75.168 22.5C75.168 21.9688 75.2812 21.4688 75.5078 21C75.7422 20.5312 76.0742 20.1172 76.5039 19.7578C76.9414 19.3906 77.4727 19.1055 78.0977 18.9023C78.7305 18.6914 79.4414 18.5859 80.2305 18.5859C81.332 18.5859 82.2773 18.7617 83.0664 19.1133C83.8633 19.4648 84.4727 19.9492 84.8945 20.5664C85.3242 21.1758 85.5391 21.8711 85.5391 22.6523H82.1641C82.1641 22.3242 82.0938 22.0312 81.9531 21.7734C81.8203 21.5078 81.6094 21.3008 81.3203 21.1523C81.0391 20.9961 80.6719 20.918 80.2188 20.918C79.8438 20.918 79.5195 20.9844 79.2461 21.1172C78.9727 21.2422 78.7617 21.4141 78.6133 21.6328C78.4727 21.8438 78.4023 22.0781 78.4023 22.3359C78.4023 22.5312 78.4414 22.707 78.5195 22.8633C78.6055 23.0117 78.7422 23.1484 78.9297 23.2734C79.1172 23.3984 79.3594 23.5156 79.6562 23.625C79.9609 23.7266 80.3359 23.8203 80.7812 23.9062C81.6953 24.0938 82.5117 24.3398 83.2305 24.6445C83.9492 24.9414 84.5195 25.3477 84.9414 25.8633C85.3633 26.3711 85.5742 27.0391 85.5742 27.8672C85.5742 28.4297 85.4492 28.9453 85.1992 29.4141C84.9492 29.8828 84.5898 30.293 84.1211 30.6445C83.6523 30.9883 83.0898 31.2578 82.4336 31.4531C81.7852 31.6406 81.0547 31.7344 80.2422 31.7344C79.0625 31.7344 78.0625 31.5234 77.2422 31.1016C76.4297 30.6797 75.8125 30.1445 75.3906 29.4961C74.9766 28.8398 74.7695 28.168 74.7695 27.4805H77.9688C77.9844 27.9414 78.1016 28.3125 78.3203 28.5938C78.5469 28.875 78.832 29.0781 79.1758 29.2031C79.5273 29.3281 79.9062 29.3906 80.3125 29.3906C80.75 29.3906 81.1133 29.332 81.4023 29.2148C81.6914 29.0898 81.9102 28.9258 82.0586 28.7227C82.2148 28.5117 82.293 28.2695 82.293 27.9961ZM93.9766 18.8203V21.2109H86.5938V18.8203H93.9766ZM88.4219 15.6914H91.7969V27.6797C91.7969 28.0469 91.8438 28.3281 91.9375 28.5234C92.0391 28.7188 92.1875 28.8555 92.3828 28.9336C92.5781 29.0039 92.8242 29.0391 93.1211 29.0391C93.332 29.0391 93.5195 29.0312 93.6836 29.0156C93.8555 28.9922 94 28.9688 94.1172 28.9453L94.1289 31.4297C93.8398 31.5234 93.5273 31.5977 93.1914 31.6523C92.8555 31.707 92.4844 31.7344 92.0781 31.7344C91.3359 31.7344 90.6875 31.6133 90.1328 31.3711C89.5859 31.1211 89.1641 30.7227 88.8672 30.1758C88.5703 29.6289 88.4219 28.9102 88.4219 28.0195V15.6914ZM99.2734 21.5859V31.5H95.8984V18.8203H99.0742L99.2734 21.5859ZM103.094 18.7383L103.035 21.8672C102.871 21.8438 102.672 21.8242 102.438 21.8086C102.211 21.7852 102.004 21.7734 101.816 21.7734C101.34 21.7734 100.926 21.8359 100.574 21.9609C100.23 22.0781 99.9414 22.2539 99.707 22.4883C99.4805 22.7227 99.3086 23.0078 99.1914 23.3438C99.082 23.6797 99.0195 24.0625 99.0039 24.4922L98.3242 24.2812C98.3242 23.4609 98.4062 22.707 98.5703 22.0195C98.7344 21.3242 98.9727 20.7188 99.2852 20.2031C99.6055 19.6875 99.9961 19.2891 100.457 19.0078C100.918 18.7266 101.445 18.5859 102.039 18.5859C102.227 18.5859 102.418 18.6016 102.613 18.6328C102.809 18.6562 102.969 18.6914 103.094 18.7383ZM103.797 25.2891V25.043C103.797 24.1133 103.93 23.2578 104.195 22.4766C104.461 21.6875 104.848 21.0039 105.355 20.4258C105.863 19.8477 106.488 19.3984 107.23 19.0781C107.973 18.75 108.824 18.5859 109.785 18.5859C110.746 18.5859 111.602 18.75 112.352 19.0781C113.102 19.3984 113.73 19.8477 114.238 20.4258C114.754 21.0039 115.145 21.6875 115.41 22.4766C115.676 23.2578 115.809 24.1133 115.809 25.043V25.2891C115.809 26.2109 115.676 27.0664 115.41 27.8555C115.145 28.6367 114.754 29.3203 114.238 29.9062C113.73 30.4844 113.105 30.9336 112.363 31.2539C111.621 31.5742 110.77 31.7344 109.809 31.7344C108.848 31.7344 107.992 31.5742 107.242 31.2539C106.5 30.9336 105.871 30.4844 105.355 29.9062C104.848 29.3203 104.461 28.6367 104.195 27.8555C103.93 27.0664 103.797 26.2109 103.797 25.2891ZM107.172 25.043V25.2891C107.172 25.8203 107.219 26.3164 107.312 26.7773C107.406 27.2383 107.555 27.6445 107.758 27.9961C107.969 28.3398 108.242 28.6094 108.578 28.8047C108.914 29 109.324 29.0977 109.809 29.0977C110.277 29.0977 110.68 29 111.016 28.8047C111.352 28.6094 111.621 28.3398 111.824 27.9961C112.027 27.6445 112.176 27.2383 112.27 26.7773C112.371 26.3164 112.422 25.8203 112.422 25.2891V25.043C112.422 24.5273 112.371 24.043 112.27 23.5898C112.176 23.1289 112.023 22.7227 111.812 22.3711C111.609 22.0117 111.34 21.7305 111.004 21.5273C110.668 21.3242 110.262 21.2227 109.785 21.2227C109.309 21.2227 108.902 21.3242 108.566 21.5273C108.238 21.7305 107.969 22.0117 107.758 22.3711C107.555 22.7227 107.406 23.1289 107.312 23.5898C107.219 24.043 107.172 24.5273 107.172 25.043ZM121.258 21.4453V31.5H117.871V18.8203H121.047L121.258 21.4453ZM120.789 24.7148H119.852C119.852 23.832 119.957 23.0195 120.168 22.2773C120.387 21.5273 120.703 20.8789 121.117 20.332C121.539 19.7773 122.059 19.3477 122.676 19.043C123.293 18.7383 124.008 18.5859 124.82 18.5859C125.383 18.5859 125.898 18.6719 126.367 18.8438C126.836 19.0078 127.238 19.2695 127.574 19.6289C127.918 19.9805 128.184 20.4414 128.371 21.0117C128.559 21.5742 128.652 22.25 128.652 23.0391V31.5H125.277V23.4141C125.277 22.8359 125.199 22.3906 125.043 22.0781C124.887 21.7656 124.664 21.5469 124.375 21.4219C124.094 21.2969 123.754 21.2344 123.355 21.2344C122.918 21.2344 122.535 21.3242 122.207 21.5039C121.887 21.6836 121.621 21.9336 121.41 22.2539C121.199 22.5664 121.043 22.9336 120.941 23.3555C120.84 23.7773 120.789 24.2305 120.789 24.7148ZM128.336 24.3281L127.129 24.4805C127.129 23.6523 127.23 22.8828 127.434 22.1719C127.645 21.4609 127.953 20.8359 128.359 20.2969C128.773 19.7578 129.285 19.3398 129.895 19.043C130.504 18.7383 131.207 18.5859 132.004 18.5859C132.613 18.5859 133.168 18.6758 133.668 18.8555C134.168 19.0273 134.594 19.3047 134.945 19.6875C135.305 20.0625 135.578 20.5547 135.766 21.1641C135.961 21.7734 136.059 22.5195 136.059 23.4023V31.5H132.672V23.4023C132.672 22.8164 132.594 22.3711 132.438 22.0664C132.289 21.7539 132.07 21.5391 131.781 21.4219C131.5 21.2969 131.164 21.2344 130.773 21.2344C130.367 21.2344 130.012 21.3164 129.707 21.4805C129.402 21.6367 129.148 21.8555 128.945 22.1367C128.742 22.418 128.59 22.7461 128.488 23.1211C128.387 23.4883 128.336 23.8906 128.336 24.3281Z" fill="#0F172A"/>
<g clip-path="url(#clip0_100_8898)">
<path d="M256.783 22.5127C256.783 18.3985 255.149 14.4527 252.24 11.5436C249.33 8.63437 245.385 7 241.27 7C237.156 7 233.211 8.63437 230.301 11.5436C227.392 14.4527 225.758 18.3985 225.758 22.5127H230.606C232.212 22.5127 233.465 21.1665 234.053 19.6717C234.439 18.6903 235.026 17.7884 235.786 17.0281C237.24 15.5735 239.213 14.7563 241.27 14.7563C243.328 14.7563 245.3 15.5735 246.755 17.0281C248.21 18.4827 249.027 20.4556 249.027 22.5127H256.783Z" fill="#0D9488"/>
<path d="M247.844 28.4501C248.624 26.568 249.025 24.5508 249.025 22.5137H256.781C256.781 31.0811 249.836 38.0263 241.268 38.0263C239.926 38.0263 238.624 37.856 237.383 37.5358C238.085 37.3548 238.776 37.1243 239.449 36.8455C241.331 36.0659 243.041 34.9233 244.482 33.4828C245.922 32.0423 247.065 30.3322 247.844 28.4501Z" fill="#FDBA74"/>
<path d="M218 22.5117C218 24.5489 218.401 26.5661 219.181 28.4482C219.96 30.3303 221.103 32.0404 222.544 33.4809C223.984 34.9213 225.694 36.064 227.576 36.8436C229.458 37.6232 231.476 38.0244 233.513 38.0244C235.55 38.0244 237.567 37.6232 239.449 36.8436C241.331 36.064 243.041 34.9213 244.482 33.4809C245.922 32.0404 247.065 30.3303 247.844 28.4482C248.624 26.5661 249.025 24.5489 249.025 22.5117H244.178C242.571 22.5117 241.318 23.8579 240.73 25.3526C240.713 25.3952 240.696 25.4376 240.679 25.48C240.289 26.421 239.718 27.2761 238.997 27.9963C238.277 28.7165 237.422 29.2879 236.481 29.6777C235.54 30.0675 234.531 30.2681 233.513 30.2681C232.494 30.2681 231.486 30.0675 230.545 29.6777C229.603 29.2879 228.748 28.7165 228.028 27.9963C227.308 27.2761 226.737 26.421 226.347 25.48C225.957 24.5389 225.756 23.5303 225.756 22.5117H218Z" fill="#FB923C"/>
<path d="M218 22.5127C218 13.9452 224.945 7 233.513 7C234.854 7 236.156 7.17025 237.397 7.49032C234.733 8.17657 232.276 9.56535 230.298 11.5436C227.388 14.4527 225.754 18.3985 225.754 22.5127H218Z" fill="#2DD4BF"/>
<path d="M275.551 28.5977C275.965 28.5977 276.332 28.5195 276.652 28.3633C276.973 28.1992 277.223 27.9727 277.402 27.6836C277.59 27.3867 277.688 27.0391 277.695 26.6406H280.871C280.863 27.5312 280.625 28.3242 280.156 29.0195C279.688 29.707 279.059 30.25 278.27 30.6484C277.48 31.0391 276.598 31.2344 275.621 31.2344C274.637 31.2344 273.777 31.0703 273.043 30.7422C272.316 30.4141 271.711 29.9609 271.227 29.3828C270.742 28.7969 270.379 28.1172 270.137 27.3438C269.895 26.5625 269.773 25.7266 269.773 24.8359V24.4961C269.773 23.5977 269.895 22.7617 270.137 21.9883C270.379 21.207 270.742 20.5273 271.227 19.9492C271.711 19.3633 272.316 18.9062 273.043 18.5781C273.77 18.25 274.621 18.0859 275.598 18.0859C276.637 18.0859 277.547 18.2852 278.328 18.6836C279.117 19.082 279.734 19.6523 280.18 20.3945C280.633 21.1289 280.863 22 280.871 23.0078H277.695C277.688 22.5859 277.598 22.2031 277.426 21.8594C277.262 21.5156 277.02 21.2422 276.699 21.0391C276.387 20.8281 276 20.7227 275.539 20.7227C275.047 20.7227 274.645 20.8281 274.332 21.0391C274.02 21.2422 273.777 21.5234 273.605 21.8828C273.434 22.2344 273.312 22.6367 273.242 23.0898C273.18 23.5352 273.148 24.0039 273.148 24.4961V24.8359C273.148 25.3281 273.18 25.8008 273.242 26.2539C273.305 26.707 273.422 27.1094 273.594 27.4609C273.773 27.8125 274.02 28.0898 274.332 28.293C274.645 28.4961 275.051 28.5977 275.551 28.5977ZM286.391 18.3203V31H283.004V18.3203H286.391ZM282.793 15.0156C282.793 14.5234 282.965 14.1172 283.309 13.7969C283.652 13.4766 284.113 13.3164 284.691 13.3164C285.262 13.3164 285.719 13.4766 286.062 13.7969C286.414 14.1172 286.59 14.5234 286.59 15.0156C286.59 15.5078 286.414 15.9141 286.062 16.2344C285.719 16.5547 285.262 16.7148 284.691 16.7148C284.113 16.7148 283.652 16.5547 283.309 16.2344C282.965 15.9141 282.793 15.5078 282.793 15.0156ZM294.418 28.5977C294.832 28.5977 295.199 28.5195 295.52 28.3633C295.84 28.1992 296.09 27.9727 296.27 27.6836C296.457 27.3867 296.555 27.0391 296.562 26.6406H299.738C299.73 27.5312 299.492 28.3242 299.023 29.0195C298.555 29.707 297.926 30.25 297.137 30.6484C296.348 31.0391 295.465 31.2344 294.488 31.2344C293.504 31.2344 292.645 31.0703 291.91 30.7422C291.184 30.4141 290.578 29.9609 290.094 29.3828C289.609 28.7969 289.246 28.1172 289.004 27.3438C288.762 26.5625 288.641 25.7266 288.641 24.8359V24.4961C288.641 23.5977 288.762 22.7617 289.004 21.9883C289.246 21.207 289.609 20.5273 290.094 19.9492C290.578 19.3633 291.184 18.9062 291.91 18.5781C292.637 18.25 293.488 18.0859 294.465 18.0859C295.504 18.0859 296.414 18.2852 297.195 18.6836C297.984 19.082 298.602 19.6523 299.047 20.3945C299.5 21.1289 299.73 22 299.738 23.0078H296.562C296.555 22.5859 296.465 22.2031 296.293 21.8594C296.129 21.5156 295.887 21.2422 295.566 21.0391C295.254 20.8281 294.867 20.7227 294.406 20.7227C293.914 20.7227 293.512 20.8281 293.199 21.0391C292.887 21.2422 292.645 21.5234 292.473 21.8828C292.301 22.2344 292.18 22.6367 292.109 23.0898C292.047 23.5352 292.016 24.0039 292.016 24.4961V24.8359C292.016 25.3281 292.047 25.8008 292.109 26.2539C292.172 26.707 292.289 27.1094 292.461 27.4609C292.641 27.8125 292.887 28.0898 293.199 28.293C293.512 28.4961 293.918 28.5977 294.418 28.5977ZM305.258 18.3203V31H301.871V18.3203H305.258ZM301.66 15.0156C301.66 14.5234 301.832 14.1172 302.176 13.7969C302.52 13.4766 302.98 13.3164 303.559 13.3164C304.129 13.3164 304.586 13.4766 304.93 13.7969C305.281 14.1172 305.457 14.5234 305.457 15.0156C305.457 15.5078 305.281 15.9141 304.93 16.2344C304.586 16.5547 304.129 16.7148 303.559 16.7148C302.98 16.7148 302.52 16.5547 302.176 16.2344C301.832 15.9141 301.66 15.5078 301.66 15.0156ZM307.508 24.7891V24.543C307.508 23.6133 307.641 22.7578 307.906 21.9766C308.172 21.1875 308.559 20.5039 309.066 19.9258C309.574 19.3477 310.199 18.8984 310.941 18.5781C311.684 18.25 312.535 18.0859 313.496 18.0859C314.457 18.0859 315.312 18.25 316.062 18.5781C316.812 18.8984 317.441 19.3477 317.949 19.9258C318.465 20.5039 318.855 21.1875 319.121 21.9766C319.387 22.7578 319.52 23.6133 319.52 24.543V24.7891C319.52 25.7109 319.387 26.5664 319.121 27.3555C318.855 28.1367 318.465 28.8203 317.949 29.4062C317.441 29.9844 316.816 30.4336 316.074 30.7539C315.332 31.0742 314.48 31.2344 313.52 31.2344C312.559 31.2344 311.703 31.0742 310.953 30.7539C310.211 30.4336 309.582 29.9844 309.066 29.4062C308.559 28.8203 308.172 28.1367 307.906 27.3555C307.641 26.5664 307.508 25.7109 307.508 24.7891ZM310.883 24.543V24.7891C310.883 25.3203 310.93 25.8164 311.023 26.2773C311.117 26.7383 311.266 27.1445 311.469 27.4961C311.68 27.8398 311.953 28.1094 312.289 28.3047C312.625 28.5 313.035 28.5977 313.52 28.5977C313.988 28.5977 314.391 28.5 314.727 28.3047C315.062 28.1094 315.332 27.8398 315.535 27.4961C315.738 27.1445 315.887 26.7383 315.98 26.2773C316.082 25.8164 316.133 25.3203 316.133 24.7891V24.543C316.133 24.0273 316.082 23.543 315.98 23.0898C315.887 22.6289 315.734 22.2227 315.523 21.8711C315.32 21.5117 315.051 21.2305 314.715 21.0273C314.379 20.8242 313.973 20.7227 313.496 20.7227C313.02 20.7227 312.613 20.8242 312.277 21.0273C311.949 21.2305 311.68 21.5117 311.469 21.8711C311.266 22.2227 311.117 22.6289 311.023 23.0898C310.93 23.543 310.883 24.0273 310.883 24.543Z" fill="#0F172A"/>
</g>
<path d="M421.91 21.8847C422.648 18.9194 424.356 16.2861 426.764 14.4042C429.171 12.5223 432.139 11.5 435.195 11.5C438.251 11.5 441.219 12.5223 443.626 14.4042C446.034 16.2861 447.742 18.9194 448.48 21.8847H447.28C445.256 21.8549 443.273 22.4599 441.61 23.6147C441.514 23.6842 441.414 23.7477 441.31 23.8047H441.17C441.066 23.7477 440.966 23.6842 440.87 23.6147C439.192 22.4866 437.217 21.8841 435.195 21.8841C433.173 21.8841 431.198 22.4866 429.52 23.6147C429.424 23.6842 429.324 23.7477 429.22 23.8047H429.08C428.976 23.7477 428.876 23.6842 428.78 23.6147C427.117 22.4599 425.134 21.8549 423.11 21.8847H421.91ZM445.12 28.1547C445.736 27.675 446.499 27.424 447.28 27.4447H448.89V24.2347H447.28C445.905 24.2181 444.562 24.646 443.45 25.4547C442.824 25.916 442.067 26.1649 441.29 26.1649C440.513 26.1649 439.756 25.916 439.13 25.4547C437.99 24.6611 436.634 24.2356 435.245 24.2356C433.856 24.2356 432.5 24.6611 431.36 25.4547C430.734 25.916 429.977 26.1649 429.2 26.1649C428.423 26.1649 427.666 25.916 427.04 25.4547C425.914 24.6356 424.552 24.2072 423.16 24.2347H421.5V27.4447H423.11C423.891 27.424 424.654 27.675 425.27 28.1547C426.408 28.9489 427.762 29.3747 429.15 29.3747C430.538 29.3747 431.892 28.9489 433.03 28.1547C433.647 27.6765 434.41 27.4257 435.19 27.4447C435.971 27.4223 436.735 27.6735 437.35 28.1547C438.49 28.9484 439.846 29.3738 441.235 29.3738C442.624 29.3738 443.98 28.9484 445.12 28.1547ZM445.12 33.8947C445.736 33.415 446.499 33.164 447.28 33.1847H448.89V29.9747H447.28C445.905 29.9581 444.562 30.386 443.45 31.1947C442.824 31.656 442.067 31.9049 441.29 31.9049C440.513 31.9049 439.756 31.656 439.13 31.1947C437.99 30.4011 436.634 29.9757 435.245 29.9757C433.856 29.9757 432.5 30.4011 431.36 31.1947C430.734 31.656 429.977 31.9049 429.2 31.9049C428.423 31.9049 427.666 31.656 427.04 31.1947C425.914 30.3757 424.552 29.9472 423.16 29.9747H421.5V33.1847H423.11C423.891 33.164 424.654 33.415 425.27 33.8947C426.408 34.6889 427.762 35.1147 429.15 35.1147C430.538 35.1147 431.892 34.6889 433.03 33.8947C433.647 33.4165 434.41 33.1657 435.19 33.1847C435.971 33.1623 436.735 33.4135 437.35 33.8947C438.49 34.6884 439.846 35.1138 441.235 35.1138C442.624 35.1138 443.98 34.6884 445.12 33.8947Z" fill="#0EA5E9"/>
<path d="M463.941 27.6855L466.578 18.2871H468.723L468.031 21.9785L465.395 30.9668H463.602L463.941 27.6855ZM462.605 18.2871L464.492 27.6738L464.668 30.9668H462.559L459.348 18.2871H462.605ZM471.137 27.5215L472.977 18.2871H476.246L473.035 30.9668H470.938L471.137 27.5215ZM469.016 18.2871L471.641 27.6152L472.004 30.9668H470.199L467.562 21.9902L466.895 18.2871H469.016ZM483.781 31.2012C482.797 31.2012 481.914 31.0449 481.133 30.7324C480.352 30.4121 479.688 29.9707 479.141 29.4082C478.602 28.8457 478.188 28.1934 477.898 27.4512C477.609 26.7012 477.465 25.9043 477.465 25.0605V24.5918C477.465 23.6309 477.602 22.752 477.875 21.9551C478.148 21.1582 478.539 20.4668 479.047 19.8809C479.562 19.2949 480.188 18.8457 480.922 18.5332C481.656 18.2129 482.484 18.0527 483.406 18.0527C484.305 18.0527 485.102 18.2012 485.797 18.498C486.492 18.7949 487.074 19.2168 487.543 19.7637C488.02 20.3105 488.379 20.9668 488.621 21.7324C488.863 22.4902 488.984 23.334 488.984 24.2637V25.6699H478.906V23.4199H485.668V23.1621C485.668 22.6934 485.582 22.2754 485.41 21.9082C485.246 21.5332 484.996 21.2363 484.66 21.0176C484.324 20.7988 483.895 20.6895 483.371 20.6895C482.926 20.6895 482.543 20.7871 482.223 20.9824C481.902 21.1777 481.641 21.4512 481.438 21.8027C481.242 22.1543 481.094 22.5684 480.992 23.0449C480.898 23.5137 480.852 24.0293 480.852 24.5918V25.0605C480.852 25.5684 480.922 26.0371 481.062 26.4668C481.211 26.8965 481.418 27.2676 481.684 27.5801C481.957 27.8926 482.285 28.1348 482.668 28.3066C483.059 28.4785 483.5 28.5645 483.992 28.5645C484.602 28.5645 485.168 28.4473 485.691 28.2129C486.223 27.9707 486.68 27.6074 487.062 27.123L488.703 28.9043C488.438 29.2871 488.074 29.6543 487.613 30.0059C487.16 30.3574 486.613 30.6465 485.973 30.873C485.332 31.0918 484.602 31.2012 483.781 31.2012ZM497.75 28.1074V22.459C497.75 22.0527 497.684 21.7051 497.551 21.416C497.418 21.1191 497.211 20.8887 496.93 20.7246C496.656 20.5605 496.301 20.4785 495.863 20.4785C495.488 20.4785 495.164 20.5449 494.891 20.6777C494.617 20.8027 494.406 20.9863 494.258 21.2285C494.109 21.4629 494.035 21.7402 494.035 22.0605H490.66C490.66 21.5215 490.785 21.0098 491.035 20.5254C491.285 20.041 491.648 19.6152 492.125 19.248C492.602 18.873 493.168 18.5801 493.824 18.3691C494.488 18.1582 495.23 18.0527 496.051 18.0527C497.035 18.0527 497.91 18.2168 498.676 18.5449C499.441 18.873 500.043 19.3652 500.48 20.0215C500.926 20.6777 501.148 21.498 501.148 22.4824V27.9082C501.148 28.6035 501.191 29.1738 501.277 29.6191C501.363 30.0566 501.488 30.4395 501.652 30.7676V30.9668H498.242C498.078 30.623 497.953 30.1934 497.867 29.6777C497.789 29.1543 497.75 28.6309 497.75 28.1074ZM498.195 23.2441L498.219 25.1543H496.332C495.887 25.1543 495.5 25.2051 495.172 25.3066C494.844 25.4082 494.574 25.5527 494.363 25.7402C494.152 25.9199 493.996 26.1309 493.895 26.373C493.801 26.6152 493.754 26.8809 493.754 27.1699C493.754 27.459 493.82 27.7207 493.953 27.9551C494.086 28.1816 494.277 28.3613 494.527 28.4941C494.777 28.6191 495.07 28.6816 495.406 28.6816C495.914 28.6816 496.355 28.5801 496.73 28.377C497.105 28.1738 497.395 27.9238 497.598 27.627C497.809 27.3301 497.918 27.0488 497.926 26.7832L498.816 28.2129C498.691 28.5332 498.52 28.8652 498.301 29.209C498.09 29.5527 497.82 29.877 497.492 30.1816C497.164 30.4785 496.77 30.7246 496.309 30.9199C495.848 31.1074 495.301 31.2012 494.668 31.2012C493.863 31.2012 493.133 31.041 492.477 30.7207C491.828 30.3926 491.312 29.9434 490.93 29.373C490.555 28.7949 490.367 28.1387 490.367 27.4043C490.367 26.7402 490.492 26.1504 490.742 25.6348C490.992 25.1191 491.359 24.6855 491.844 24.334C492.336 23.9746 492.949 23.7051 493.684 23.5254C494.418 23.3379 495.27 23.2441 496.238 23.2441H498.195ZM507.875 28.5059L510.688 18.2871H514.215L509.938 30.9668H507.805L507.875 28.5059ZM505.941 18.2871L508.766 28.5176L508.824 30.9668H506.68L502.402 18.2871H505.941ZM519.488 29.5371L522.852 18.2871H526.473L521.375 32.877C521.266 33.1973 521.117 33.541 520.93 33.9082C520.75 34.2754 520.504 34.623 520.191 34.9512C519.887 35.2871 519.5 35.5605 519.031 35.7715C518.57 35.9824 518.004 36.0879 517.332 36.0879C517.012 36.0879 516.75 36.0684 516.547 36.0293C516.344 35.9902 516.102 35.9355 515.82 35.8652V33.3926C515.906 33.3926 515.996 33.3926 516.09 33.3926C516.184 33.4004 516.273 33.4043 516.359 33.4043C516.805 33.4043 517.168 33.3535 517.449 33.252C517.73 33.1504 517.957 32.9941 518.129 32.7832C518.301 32.5801 518.438 32.3145 518.539 31.9863L519.488 29.5371ZM518.082 18.2871L520.836 27.4746L521.316 31.0488L519.02 31.2949L514.461 18.2871H518.082Z" fill="#0F172A"/>
<g clip-path="url(#clip1_100_8898)">
<path fill-rule="evenodd" clip-rule="evenodd" d="M644.604 3.72499C643.11 2.23186 640.689 2.23235 639.196 3.7261L626.735 16.1926L626.724 16.1895L626.685 16.1937C626.701 16.2015 626.717 16.2092 626.732 16.217C624.546 16.446 623.619 17.1029 623.608 17.9465C623.612 18.2603 623.741 18.5992 623.977 18.951L623.966 18.9624C625.953 21.9597 635.798 25.9136 642.763 23.2347C637.543 25.8447 625.25 26.362 621.639 21.2944C620.855 22.1427 620.527 23.2575 620.65 24.3288C621.604 29.5862 632.268 31.0205 642.933 23.4032L645.24 25.7109C642.369 28.6611 638.127 45.7976 644.43 43.1812C644.579 43.0797 644.706 42.9889 644.879 42.8583L645.16 42.5931C645.143 42.5971 645.127 42.6009 645.111 42.6047L661.991 26.669C663.559 25.1893 663.594 22.7074 662.07 21.1835L644.604 3.72499ZM642.766 8.91828L643.343 6.61059L643.92 8.91828L645.65 9.49521L643.92 10.0722L643.343 12.3799L642.766 10.0722L641.035 9.49521L642.766 8.91828ZM635.625 16.4517L636.01 14.9132L636.394 16.4517L637.548 16.8363L636.394 17.2209L636.01 18.7594L635.625 17.2209L634.471 16.8363L635.625 16.4517ZM649.021 29.4286L648.636 30.967L647.482 31.3517L648.636 31.7363L649.021 33.2747L649.405 31.7363L650.559 31.3517L649.405 30.967L649.021 29.4286Z" fill="#4F46E5"/>
<path fill-rule="evenodd" clip-rule="evenodd" d="M663.289 5.25195C659.681 5.25195 656.258 6.85486 653.948 9.62716L645.729 19.4901L650.475 12.371L642.597 15.7473C641.596 16.1761 641.345 17.4796 642.115 18.2493L644.65 20.7844L643.356 22.3377L646.204 25.1853L647.757 23.8909L650.292 26.4261C651.062 27.1957 652.365 26.9447 652.794 25.9443L656.17 18.0663L649.051 22.8123L658.914 14.5932C661.686 12.283 663.289 8.86067 663.289 5.25195ZM655.458 13.0831C656.245 13.8694 657.52 13.8694 658.306 13.0831C659.092 12.2967 659.092 11.0218 658.306 10.2355C657.52 9.44908 656.245 9.44908 655.458 10.2355C654.672 11.0218 654.672 12.2967 655.458 13.0831Z" fill="#A78BFA"/>
<path opacity="0.6" d="M621.547 21.1602C623.432 27.62 634.896 27.2832 642.76 23.2341C637.494 25.8657 625.036 26.3683 621.547 21.1602Z" fill="#64748B"/>
<path opacity="0.6" d="M644.427 43.1812C639.116 45.3858 641.292 33.5654 643.827 28.0254C641.979 32.9496 640.402 43.8047 645.157 42.5931L644.876 42.8583C644.704 42.9889 644.577 43.0797 644.427 43.1812Z" fill="#64748B"/>
<path d="M681.625 29.5391L684.438 19.3203H687.965L683.688 32H681.555L681.625 29.5391ZM679.691 19.3203L682.516 29.5508L682.574 32H680.43L676.152 19.3203H679.691ZM689.688 14.9375H696.051C697.355 14.9375 698.477 15.1328 699.414 15.5234C700.359 15.9141 701.086 16.4922 701.594 17.2578C702.102 18.0234 702.355 18.9648 702.355 20.082C702.355 20.9961 702.199 21.7812 701.887 22.4375C701.582 23.0859 701.148 23.6289 700.586 24.0664C700.031 24.4961 699.379 24.8398 698.629 25.0977L697.516 25.6836H691.984L691.961 22.9414H696.074C696.691 22.9414 697.203 22.832 697.609 22.6133C698.016 22.3945 698.32 22.0898 698.523 21.6992C698.734 21.3086 698.84 20.8555 698.84 20.3398C698.84 19.793 698.738 19.3203 698.535 18.9219C698.332 18.5234 698.023 18.2188 697.609 18.0078C697.195 17.7969 696.676 17.6914 696.051 17.6914H693.203V32H689.688V14.9375ZM699.227 32L695.336 24.3945L699.051 24.3711L702.988 31.8359V32H699.227ZM704.312 25.7891V25.543C704.312 24.6133 704.445 23.7578 704.711 22.9766C704.977 22.1875 705.363 21.5039 705.871 20.9258C706.379 20.3477 707.004 19.8984 707.746 19.5781C708.488 19.25 709.34 19.0859 710.301 19.0859C711.262 19.0859 712.117 19.25 712.867 19.5781C713.617 19.8984 714.246 20.3477 714.754 20.9258C715.27 21.5039 715.66 22.1875 715.926 22.9766C716.191 23.7578 716.324 24.6133 716.324 25.543V25.7891C716.324 26.7109 716.191 27.5664 715.926 28.3555C715.66 29.1367 715.27 29.8203 714.754 30.4062C714.246 30.9844 713.621 31.4336 712.879 31.7539C712.137 32.0742 711.285 32.2344 710.324 32.2344C709.363 32.2344 708.508 32.0742 707.758 31.7539C707.016 31.4336 706.387 30.9844 705.871 30.4062C705.363 29.8203 704.977 29.1367 704.711 28.3555C704.445 27.5664 704.312 26.7109 704.312 25.7891ZM707.688 25.543V25.7891C707.688 26.3203 707.734 26.8164 707.828 27.2773C707.922 27.7383 708.07 28.1445 708.273 28.4961C708.484 28.8398 708.758 29.1094 709.094 29.3047C709.43 29.5 709.84 29.5977 710.324 29.5977C710.793 29.5977 711.195 29.5 711.531 29.3047C711.867 29.1094 712.137 28.8398 712.34 28.4961C712.543 28.1445 712.691 27.7383 712.785 27.2773C712.887 26.8164 712.938 26.3203 712.938 25.7891V25.543C712.938 25.0273 712.887 24.543 712.785 24.0898C712.691 23.6289 712.539 23.2227 712.328 22.8711C712.125 22.5117 711.855 22.2305 711.52 22.0273C711.184 21.8242 710.777 21.7227 710.301 21.7227C709.824 21.7227 709.418 21.8242 709.082 22.0273C708.754 22.2305 708.484 22.5117 708.273 22.8711C708.07 23.2227 707.922 23.6289 707.828 24.0898C707.734 24.543 707.688 25.0273 707.688 25.543ZM721.773 13.9883V32H718.398V13.9883H721.773ZM729.766 19.3203L724.258 25.6016L721.305 28.5898L720.074 26.1523L722.418 23.1758L725.711 19.3203H729.766ZM726.262 32L722.512 26.1406L724.844 24.1016L730.152 32H726.262ZM736.82 32.2344C735.836 32.2344 734.953 32.0781 734.172 31.7656C733.391 31.4453 732.727 31.0039 732.18 30.4414C731.641 29.8789 731.227 29.2266 730.938 28.4844C730.648 27.7344 730.504 26.9375 730.504 26.0938V25.625C730.504 24.6641 730.641 23.7852 730.914 22.9883C731.188 22.1914 731.578 21.5 732.086 20.9141C732.602 20.3281 733.227 19.8789 733.961 19.5664C734.695 19.2461 735.523 19.0859 736.445 19.0859C737.344 19.0859 738.141 19.2344 738.836 19.5312C739.531 19.8281 740.113 20.25 740.582 20.7969C741.059 21.3438 741.418 22 741.66 22.7656C741.902 23.5234 742.023 24.3672 742.023 25.2969V26.7031H731.945V24.4531H738.707V24.1953C738.707 23.7266 738.621 23.3086 738.449 22.9414C738.285 22.5664 738.035 22.2695 737.699 22.0508C737.363 21.832 736.934 21.7227 736.41 21.7227C735.965 21.7227 735.582 21.8203 735.262 22.0156C734.941 22.2109 734.68 22.4844 734.477 22.8359C734.281 23.1875 734.133 23.6016 734.031 24.0781C733.938 24.5469 733.891 25.0625 733.891 25.625V26.0938C733.891 26.6016 733.961 27.0703 734.102 27.5C734.25 27.9297 734.457 28.3008 734.723 28.6133C734.996 28.9258 735.324 29.168 735.707 29.3398C736.098 29.5117 736.539 29.5977 737.031 29.5977C737.641 29.5977 738.207 29.4805 738.73 29.2461C739.262 29.0039 739.719 28.6406 740.102 28.1562L741.742 29.9375C741.477 30.3203 741.113 30.6875 740.652 31.0391C740.199 31.3906 739.652 31.6797 739.012 31.9062C738.371 32.125 737.641 32.2344 736.82 32.2344ZM750.156 19.3203V21.7109H742.773V19.3203H750.156ZM744.602 16.1914H747.977V28.1797C747.977 28.5469 748.023 28.8281 748.117 29.0234C748.219 29.2188 748.367 29.3555 748.562 29.4336C748.758 29.5039 749.004 29.5391 749.301 29.5391C749.512 29.5391 749.699 29.5312 749.863 29.5156C750.035 29.4922 750.18 29.4688 750.297 29.4453L750.309 31.9297C750.02 32.0234 749.707 32.0977 749.371 32.1523C749.035 32.207 748.664 32.2344 748.258 32.2344C747.516 32.2344 746.867 32.1133 746.312 31.8711C745.766 31.6211 745.344 31.2227 745.047 30.6758C744.75 30.1289 744.602 29.4102 744.602 28.5195V16.1914ZM758.934 28.4961C758.934 28.2539 758.863 28.0352 758.723 27.8398C758.582 27.6445 758.32 27.4648 757.938 27.3008C757.562 27.1289 757.02 26.9727 756.309 26.832C755.668 26.6914 755.07 26.5156 754.516 26.3047C753.969 26.0859 753.492 25.8242 753.086 25.5195C752.688 25.2148 752.375 24.8555 752.148 24.4414C751.922 24.0195 751.809 23.5391 751.809 23C751.809 22.4688 751.922 21.9688 752.148 21.5C752.383 21.0312 752.715 20.6172 753.145 20.2578C753.582 19.8906 754.113 19.6055 754.738 19.4023C755.371 19.1914 756.082 19.0859 756.871 19.0859C757.973 19.0859 758.918 19.2617 759.707 19.6133C760.504 19.9648 761.113 20.4492 761.535 21.0664C761.965 21.6758 762.18 22.3711 762.18 23.1523H758.805C758.805 22.8242 758.734 22.5312 758.594 22.2734C758.461 22.0078 758.25 21.8008 757.961 21.6523C757.68 21.4961 757.312 21.418 756.859 21.418C756.484 21.418 756.16 21.4844 755.887 21.6172C755.613 21.7422 755.402 21.9141 755.254 22.1328C755.113 22.3438 755.043 22.5781 755.043 22.8359C755.043 23.0312 755.082 23.207 755.16 23.3633C755.246 23.5117 755.383 23.6484 755.57 23.7734C755.758 23.8984 756 24.0156 756.297 24.125C756.602 24.2266 756.977 24.3203 757.422 24.4062C758.336 24.5938 759.152 24.8398 759.871 25.1445C760.59 25.4414 761.16 25.8477 761.582 26.3633C762.004 26.8711 762.215 27.5391 762.215 28.3672C762.215 28.9297 762.09 29.4453 761.84 29.9141C761.59 30.3828 761.23 30.793 760.762 31.1445C760.293 31.4883 759.73 31.7578 759.074 31.9531C758.426 32.1406 757.695 32.2344 756.883 32.2344C755.703 32.2344 754.703 32.0234 753.883 31.6016C753.07 31.1797 752.453 30.6445 752.031 29.9961C751.617 29.3398 751.41 28.668 751.41 27.9805H754.609C754.625 28.4414 754.742 28.8125 754.961 29.0938C755.188 29.375 755.473 29.5781 755.816 29.7031C756.168 29.8281 756.547 29.8906 756.953 29.8906C757.391 29.8906 757.754 29.832 758.043 29.7148C758.332 29.5898 758.551 29.4258 758.699 29.2227C758.855 29.0117 758.934 28.7695 758.934 28.4961Z" fill="#0F172A"/>
</g>
<path d="M843 23C843 14.1634 850.163 7 859 7H880C888.837 7 896 14.1634 896 23V39H859C850.163 39 843 31.8366 843 23Z" fill="#4F46E5"/>
<path d="M880 13H859C853.477 13 849 17.4772 849 23C849 28.5228 853.477 33 859 33H880C885.523 33 890 28.5228 890 23C890 17.4772 885.523 13 880 13Z" fill="#C4B5FD"/>
<path d="M859 28C861.761 28 864 25.7614 864 23C864 20.2386 861.761 18 859 18C856.239 18 854 20.2386 854 23C854 25.7614 856.239 28 859 28Z" fill="black"/>
<path d="M857 22C857.552 22 858 21.5523 858 21C858 20.4477 857.552 20 857 20C856.448 20 856 20.4477 856 21C856 21.5523 856.448 22 857 22Z" fill="white"/>
<path d="M881 28C883.761 28 886 25.7614 886 23C886 20.2386 883.761 18 881 18C878.239 18 876 20.2386 876 23C876 25.7614 878.239 28 881 28Z" fill="black"/>
<path d="M913.625 28.5391L916.438 18.3203H919.965L915.688 31H913.555L913.625 28.5391ZM911.691 18.3203L914.516 28.5508L914.574 31H912.43L908.152 18.3203H911.691ZM925.039 18.3203V31H921.652V18.3203H925.039ZM921.441 15.0156C921.441 14.5234 921.613 14.1172 921.957 13.7969C922.301 13.4766 922.762 13.3164 923.34 13.3164C923.91 13.3164 924.367 13.4766 924.711 13.7969C925.062 14.1172 925.238 14.5234 925.238 15.0156C925.238 15.5078 925.062 15.9141 924.711 16.2344C924.367 16.5547 923.91 16.7148 923.34 16.7148C922.762 16.7148 922.301 16.5547 921.957 16.2344C921.613 15.9141 921.441 15.5078 921.441 15.0156ZM933.664 31.2344C932.68 31.2344 931.797 31.0781 931.016 30.7656C930.234 30.4453 929.57 30.0039 929.023 29.4414C928.484 28.8789 928.07 28.2266 927.781 27.4844C927.492 26.7344 927.348 25.9375 927.348 25.0938V24.625C927.348 23.6641 927.484 22.7852 927.758 21.9883C928.031 21.1914 928.422 20.5 928.93 19.9141C929.445 19.3281 930.07 18.8789 930.805 18.5664C931.539 18.2461 932.367 18.0859 933.289 18.0859C934.188 18.0859 934.984 18.2344 935.68 18.5312C936.375 18.8281 936.957 19.25 937.426 19.7969C937.902 20.3438 938.262 21 938.504 21.7656C938.746 22.5234 938.867 23.3672 938.867 24.2969V25.7031H928.789V23.4531H935.551V23.1953C935.551 22.7266 935.465 22.3086 935.293 21.9414C935.129 21.5664 934.879 21.2695 934.543 21.0508C934.207 20.832 933.777 20.7227 933.254 20.7227C932.809 20.7227 932.426 20.8203 932.105 21.0156C931.785 21.2109 931.523 21.4844 931.32 21.8359C931.125 22.1875 930.977 22.6016 930.875 23.0781C930.781 23.5469 930.734 24.0625 930.734 24.625V25.0938C930.734 25.6016 930.805 26.0703 930.945 26.5C931.094 26.9297 931.301 27.3008 931.566 27.6133C931.84 27.9258 932.168 28.168 932.551 28.3398C932.941 28.5117 933.383 28.5977 933.875 28.5977C934.484 28.5977 935.051 28.4805 935.574 28.2461C936.105 28.0039 936.562 27.6406 936.945 27.1562L938.586 28.9375C938.32 29.3203 937.957 29.6875 937.496 30.0391C937.043 30.3906 936.496 30.6797 935.855 30.9062C935.215 31.125 934.484 31.2344 933.664 31.2344ZM944.41 27.7188L947.047 18.3203H949.191L948.5 22.0117L945.863 31H944.07L944.41 27.7188ZM943.074 18.3203L944.961 27.707L945.137 31H943.027L939.816 18.3203H943.074ZM951.605 27.5547L953.445 18.3203H956.715L953.504 31H951.406L951.605 27.5547ZM949.484 18.3203L952.109 27.6484L952.473 31H950.668L948.031 22.0234L947.363 18.3203H949.484ZM961.977 18.3203V31H958.59V18.3203H961.977ZM958.379 15.0156C958.379 14.5234 958.551 14.1172 958.895 13.7969C959.238 13.4766 959.699 13.3164 960.277 13.3164C960.848 13.3164 961.305 13.4766 961.648 13.7969C962 14.1172 962.176 14.5234 962.176 15.0156C962.176 15.5078 962 15.9141 961.648 16.2344C961.305 16.5547 960.848 16.7148 960.277 16.7148C959.699 16.7148 959.238 16.5547 958.895 16.2344C958.551 15.9141 958.379 15.5078 958.379 15.0156ZM964.227 24.7891V24.543C964.227 23.6133 964.359 22.7578 964.625 21.9766C964.891 21.1875 965.277 20.5039 965.785 19.9258C966.293 19.3477 966.918 18.8984 967.66 18.5781C968.402 18.25 969.254 18.0859 970.215 18.0859C971.176 18.0859 972.031 18.25 972.781 18.5781C973.531 18.8984 974.16 19.3477 974.668 19.9258C975.184 20.5039 975.574 21.1875 975.84 21.9766C976.105 22.7578 976.238 23.6133 976.238 24.543V24.7891C976.238 25.7109 976.105 26.5664 975.84 27.3555C975.574 28.1367 975.184 28.8203 974.668 29.4062C974.16 29.9844 973.535 30.4336 972.793 30.7539C972.051 31.0742 971.199 31.2344 970.238 31.2344C969.277 31.2344 968.422 31.0742 967.672 30.7539C966.93 30.4336 966.301 29.9844 965.785 29.4062C965.277 28.8203 964.891 28.1367 964.625 27.3555C964.359 26.5664 964.227 25.7109 964.227 24.7891ZM967.602 24.543V24.7891C967.602 25.3203 967.648 25.8164 967.742 26.2773C967.836 26.7383 967.984 27.1445 968.188 27.4961C968.398 27.8398 968.672 28.1094 969.008 28.3047C969.344 28.5 969.754 28.5977 970.238 28.5977C970.707 28.5977 971.109 28.5 971.445 28.3047C971.781 28.1094 972.051 27.8398 972.254 27.4961C972.457 27.1445 972.605 26.7383 972.699 26.2773C972.801 25.8164 972.852 25.3203 972.852 24.7891V24.543C972.852 24.0273 972.801 23.543 972.699 23.0898C972.605 22.6289 972.453 22.2227 972.242 21.8711C972.039 21.5117 971.77 21.2305 971.434 21.0273C971.098 20.8242 970.691 20.7227 970.215 20.7227C969.738 20.7227 969.332 20.8242 968.996 21.0273C968.668 21.2305 968.398 21.5117 968.188 21.8711C967.984 22.2227 967.836 22.6289 967.742 23.0898C967.648 23.543 967.602 24.0273 967.602 24.543Z" fill="#475569"/>
<path d="M879 22C879.552 22 880 21.5523 880 21C880 20.4477 879.552 20 879 20C878.448 20 878 20.4477 878 21C878 21.5523 878.448 22 879 22Z" fill="white"/>
<path d="M92.3071 166.155L89.0547 160.522L93.8278 152.277L96.8609 157.531L114.766 157.522L109.685 166.233L92.3071 166.155Z" fill="#FDBA74"/>
<path d="M117.964 151.928L114.712 157.561L105.185 157.55L108.219 152.296L99.2578 136.795L109.343 136.839L117.964 151.928Z" fill="#CCFBF1"/>
<path d="M92.8112 136.764H99.3161L104.07 145.02L98.0029 145.019L89.0588 160.531L84.0547 151.775L92.8112 136.764Z" fill="#FB923C"/>
<path fill-rule="evenodd" clip-rule="evenodd" d="M100.107 135.459L100.088 135.426H92.0409L82.5078 151.768L89.0518 163.218L89.0598 163.204L91.5337 167.489L110.453 167.574L117.097 156.182H117.053L119.507 151.93L110.121 135.503L100.107 135.459ZM106.332 146.358H106.382L101.652 138.142L108.564 138.173L116.421 151.924L113.962 156.183L107.517 156.187L109.764 152.295L106.332 146.358ZM98.4686 138.102L101.694 143.682L97.2282 143.682L89.5826 156.94L89.0611 157.841L85.598 151.782L93.578 138.102H98.4686ZM95.3675 152.265L98.7741 146.358L103.241 146.358L106.673 152.296L104.426 156.188L97.6344 156.192L95.3675 152.265ZM90.6038 160.527L91.8999 158.279L93.8272 154.95L96.0897 158.869L102.88 158.865L102.869 158.884L112.416 158.896L108.92 164.891L93.0827 164.82L90.6038 160.527Z" fill="#1E293B"/>
<path d="M133.129 142.438H136.105L140.488 154.965L144.871 142.438H147.848L141.684 159.5H139.293L133.129 142.438ZM131.523 142.438H134.488L135.027 154.648V159.5H131.523V142.438ZM146.488 142.438H149.465V159.5H145.949V154.648L146.488 142.438ZM158.172 159.734C157.188 159.734 156.305 159.578 155.523 159.266C154.742 158.945 154.078 158.504 153.531 157.941C152.992 157.379 152.578 156.727 152.289 155.984C152 155.234 151.855 154.438 151.855 153.594V153.125C151.855 152.164 151.992 151.285 152.266 150.488C152.539 149.691 152.93 149 153.438 148.414C153.953 147.828 154.578 147.379 155.312 147.066C156.047 146.746 156.875 146.586 157.797 146.586C158.695 146.586 159.492 146.734 160.188 147.031C160.883 147.328 161.465 147.75 161.934 148.297C162.41 148.844 162.77 149.5 163.012 150.266C163.254 151.023 163.375 151.867 163.375 152.797V154.203H153.297V151.953H160.059V151.695C160.059 151.227 159.973 150.809 159.801 150.441C159.637 150.066 159.387 149.77 159.051 149.551C158.715 149.332 158.285 149.223 157.762 149.223C157.316 149.223 156.934 149.32 156.613 149.516C156.293 149.711 156.031 149.984 155.828 150.336C155.633 150.688 155.484 151.102 155.383 151.578C155.289 152.047 155.242 152.562 155.242 153.125V153.594C155.242 154.102 155.312 154.57 155.453 155C155.602 155.43 155.809 155.801 156.074 156.113C156.348 156.426 156.676 156.668 157.059 156.84C157.449 157.012 157.891 157.098 158.383 157.098C158.992 157.098 159.559 156.98 160.082 156.746C160.613 156.504 161.07 156.141 161.453 155.656L163.094 157.438C162.828 157.82 162.465 158.188 162.004 158.539C161.551 158.891 161.004 159.18 160.363 159.406C159.723 159.625 158.992 159.734 158.172 159.734ZM171.508 146.82V149.211H164.125V146.82H171.508ZM165.953 143.691H169.328V155.68C169.328 156.047 169.375 156.328 169.469 156.523C169.57 156.719 169.719 156.855 169.914 156.934C170.109 157.004 170.355 157.039 170.652 157.039C170.863 157.039 171.051 157.031 171.215 157.016C171.387 156.992 171.531 156.969 171.648 156.945L171.66 159.43C171.371 159.523 171.059 159.598 170.723 159.652C170.387 159.707 170.016 159.734 169.609 159.734C168.867 159.734 168.219 159.613 167.664 159.371C167.117 159.121 166.695 158.723 166.398 158.176C166.102 157.629 165.953 156.91 165.953 156.02V143.691ZM180.273 156.641V150.992C180.273 150.586 180.207 150.238 180.074 149.949C179.941 149.652 179.734 149.422 179.453 149.258C179.18 149.094 178.824 149.012 178.387 149.012C178.012 149.012 177.688 149.078 177.414 149.211C177.141 149.336 176.93 149.52 176.781 149.762C176.633 149.996 176.559 150.273 176.559 150.594H173.184C173.184 150.055 173.309 149.543 173.559 149.059C173.809 148.574 174.172 148.148 174.648 147.781C175.125 147.406 175.691 147.113 176.348 146.902C177.012 146.691 177.754 146.586 178.574 146.586C179.559 146.586 180.434 146.75 181.199 147.078C181.965 147.406 182.566 147.898 183.004 148.555C183.449 149.211 183.672 150.031 183.672 151.016V156.441C183.672 157.137 183.715 157.707 183.801 158.152C183.887 158.59 184.012 158.973 184.176 159.301V159.5H180.766C180.602 159.156 180.477 158.727 180.391 158.211C180.312 157.688 180.273 157.164 180.273 156.641ZM180.719 151.777L180.742 153.688H178.855C178.41 153.688 178.023 153.738 177.695 153.84C177.367 153.941 177.098 154.086 176.887 154.273C176.676 154.453 176.52 154.664 176.418 154.906C176.324 155.148 176.277 155.414 176.277 155.703C176.277 155.992 176.344 156.254 176.477 156.488C176.609 156.715 176.801 156.895 177.051 157.027C177.301 157.152 177.594 157.215 177.93 157.215C178.438 157.215 178.879 157.113 179.254 156.91C179.629 156.707 179.918 156.457 180.121 156.16C180.332 155.863 180.441 155.582 180.449 155.316L181.34 156.746C181.215 157.066 181.043 157.398 180.824 157.742C180.613 158.086 180.344 158.41 180.016 158.715C179.688 159.012 179.293 159.258 178.832 159.453C178.371 159.641 177.824 159.734 177.191 159.734C176.387 159.734 175.656 159.574 175 159.254C174.352 158.926 173.836 158.477 173.453 157.906C173.078 157.328 172.891 156.672 172.891 155.938C172.891 155.273 173.016 154.684 173.266 154.168C173.516 153.652 173.883 153.219 174.367 152.867C174.859 152.508 175.473 152.238 176.207 152.059C176.941 151.871 177.793 151.777 178.762 151.777H180.719ZM186.273 141.5H189.648V156.594L189.309 159.5H186.273V141.5ZM197.676 153.031V153.277C197.676 154.223 197.574 155.09 197.371 155.879C197.176 156.668 196.871 157.352 196.457 157.93C196.043 158.5 195.527 158.945 194.91 159.266C194.301 159.578 193.582 159.734 192.754 159.734C191.98 159.734 191.309 159.578 190.738 159.266C190.176 158.953 189.703 158.512 189.32 157.941C188.938 157.371 188.629 156.703 188.395 155.938C188.16 155.172 187.984 154.336 187.867 153.43V152.891C187.984 151.984 188.16 151.148 188.395 150.383C188.629 149.617 188.938 148.949 189.32 148.379C189.703 147.809 190.176 147.367 190.738 147.055C191.301 146.742 191.965 146.586 192.73 146.586C193.566 146.586 194.293 146.746 194.91 147.066C195.535 147.379 196.051 147.824 196.457 148.402C196.871 148.973 197.176 149.652 197.371 150.441C197.574 151.223 197.676 152.086 197.676 153.031ZM194.301 153.277V153.031C194.301 152.516 194.262 152.031 194.184 151.578C194.113 151.117 193.988 150.715 193.809 150.371C193.629 150.02 193.383 149.742 193.07 149.539C192.766 149.336 192.371 149.234 191.887 149.234C191.426 149.234 191.035 149.312 190.715 149.469C190.395 149.625 190.129 149.844 189.918 150.125C189.715 150.406 189.562 150.742 189.461 151.133C189.359 151.516 189.297 151.938 189.273 152.398V153.934C189.297 154.551 189.398 155.098 189.578 155.574C189.766 156.043 190.047 156.414 190.422 156.688C190.805 156.953 191.301 157.086 191.91 157.086C192.387 157.086 192.781 156.992 193.094 156.805C193.406 156.617 193.648 156.352 193.82 156.008C194 155.664 194.125 155.262 194.195 154.801C194.266 154.332 194.301 153.824 194.301 153.277ZM203.336 141.5V159.5H199.949V141.5H203.336ZM213.625 156.465V146.82H217V159.5H213.824L213.625 156.465ZM214 153.863L214.996 153.84C214.996 154.684 214.898 155.469 214.703 156.195C214.508 156.914 214.215 157.539 213.824 158.07C213.434 158.594 212.941 159.004 212.348 159.301C211.754 159.59 211.055 159.734 210.25 159.734C209.633 159.734 209.062 159.648 208.539 159.477C208.023 159.297 207.578 159.02 207.203 158.645C206.836 158.262 206.547 157.773 206.336 157.18C206.133 156.578 206.031 155.855 206.031 155.012V146.82H209.406V155.035C209.406 155.41 209.449 155.727 209.535 155.984C209.629 156.242 209.758 156.453 209.922 156.617C210.086 156.781 210.277 156.898 210.496 156.969C210.723 157.039 210.973 157.074 211.246 157.074C211.941 157.074 212.488 156.934 212.887 156.652C213.293 156.371 213.578 155.988 213.742 155.504C213.914 155.012 214 154.465 214 153.863Z" fill="#0F172A"/>
<g clip-path="url(#clip2_100_8898)">
<path d="M333.648 148.312C339.119 148.312 343.554 143.877 343.554 138.406C343.554 132.935 339.119 128.5 333.648 128.5C328.177 128.5 323.742 132.935 323.742 138.406C323.742 143.877 328.177 148.312 333.648 148.312Z" fill="#334155"/>
<path d="M355.789 148.312C361.259 148.312 365.694 143.877 365.694 138.406C365.694 132.935 361.259 128.5 355.789 128.5C350.318 128.5 345.883 132.935 345.883 138.406C345.883 143.877 350.318 148.312 355.789 148.312Z" fill="#475569"/>
<path d="M321.404 128.5H301.602V148.302H321.404V128.5Z" fill="#1E293B"/>
<path d="M308.203 165.512H303.82L303.797 163.098H307.477C308.125 163.098 308.656 163.016 309.07 162.852C309.484 162.68 309.793 162.434 309.996 162.113C310.207 161.785 310.312 161.387 310.312 160.918C310.312 160.387 310.211 159.957 310.008 159.629C309.812 159.301 309.504 159.062 309.082 158.914C308.668 158.766 308.133 158.691 307.477 158.691H305.039V173H301.523V155.938H307.477C308.469 155.938 309.355 156.031 310.137 156.219C310.926 156.406 311.594 156.691 312.141 157.074C312.688 157.457 313.105 157.941 313.395 158.527C313.684 159.105 313.828 159.793 313.828 160.59C313.828 161.293 313.668 161.941 313.348 162.535C313.035 163.129 312.539 163.613 311.859 163.988C311.188 164.363 310.309 164.57 309.223 164.609L308.203 165.512ZM308.051 173H302.859L304.23 170.258H308.051C308.668 170.258 309.172 170.16 309.562 169.965C309.953 169.762 310.242 169.488 310.43 169.145C310.617 168.801 310.711 168.406 310.711 167.961C310.711 167.461 310.625 167.027 310.453 166.66C310.289 166.293 310.023 166.012 309.656 165.816C309.289 165.613 308.805 165.512 308.203 165.512H304.816L304.84 163.098H309.059L309.867 164.047C310.906 164.031 311.742 164.215 312.375 164.598C313.016 164.973 313.48 165.461 313.77 166.062C314.066 166.664 314.215 167.309 314.215 167.996C314.215 169.09 313.977 170.012 313.5 170.762C313.023 171.504 312.324 172.062 311.402 172.438C310.488 172.812 309.371 173 308.051 173ZM324.141 169.965V160.32H327.516V173H324.34L324.141 169.965ZM324.516 167.363L325.512 167.34C325.512 168.184 325.414 168.969 325.219 169.695C325.023 170.414 324.73 171.039 324.34 171.57C323.949 172.094 323.457 172.504 322.863 172.801C322.27 173.09 321.57 173.234 320.766 173.234C320.148 173.234 319.578 173.148 319.055 172.977C318.539 172.797 318.094 172.52 317.719 172.145C317.352 171.762 317.062 171.273 316.852 170.68C316.648 170.078 316.547 169.355 316.547 168.512V160.32H319.922V168.535C319.922 168.91 319.965 169.227 320.051 169.484C320.145 169.742 320.273 169.953 320.438 170.117C320.602 170.281 320.793 170.398 321.012 170.469C321.238 170.539 321.488 170.574 321.762 170.574C322.457 170.574 323.004 170.434 323.402 170.152C323.809 169.871 324.094 169.488 324.258 169.004C324.43 168.512 324.516 167.965 324.516 167.363ZM333.656 160.32V173H330.27V160.32H333.656ZM330.059 157.016C330.059 156.523 330.23 156.117 330.574 155.797C330.918 155.477 331.379 155.316 331.957 155.316C332.527 155.316 332.984 155.477 333.328 155.797C333.68 156.117 333.855 156.523 333.855 157.016C333.855 157.508 333.68 157.914 333.328 158.234C332.984 158.555 332.527 158.715 331.957 158.715C331.379 158.715 330.918 158.555 330.574 158.234C330.23 157.914 330.059 157.508 330.059 157.016ZM340.008 155V173H336.621V155H340.008ZM350.285 170.234V155H353.684V173H350.625L350.285 170.234ZM342.27 166.812V166.566C342.27 165.598 342.379 164.719 342.598 163.93C342.816 163.133 343.137 162.449 343.559 161.879C343.98 161.309 344.5 160.867 345.117 160.555C345.734 160.242 346.438 160.086 347.227 160.086C347.969 160.086 348.617 160.242 349.172 160.555C349.734 160.867 350.211 161.312 350.602 161.891C351 162.461 351.32 163.137 351.562 163.918C351.805 164.691 351.98 165.539 352.09 166.461V167C351.98 167.883 351.805 168.703 351.562 169.461C351.32 170.219 351 170.883 350.602 171.453C350.211 172.016 349.734 172.453 349.172 172.766C348.609 173.078 347.953 173.234 347.203 173.234C346.414 173.234 345.711 173.074 345.094 172.754C344.484 172.434 343.969 171.984 343.547 171.406C343.133 170.828 342.816 170.148 342.598 169.367C342.379 168.586 342.27 167.734 342.27 166.812ZM345.645 166.566V166.812C345.645 167.336 345.684 167.824 345.762 168.277C345.848 168.73 345.984 169.133 346.172 169.484C346.367 169.828 346.617 170.098 346.922 170.293C347.234 170.48 347.613 170.574 348.059 170.574C348.637 170.574 349.113 170.445 349.488 170.188C349.863 169.922 350.148 169.559 350.344 169.098C350.547 168.637 350.664 168.105 350.695 167.504V165.969C350.672 165.477 350.602 165.035 350.484 164.645C350.375 164.246 350.211 163.906 349.992 163.625C349.781 163.344 349.516 163.125 349.195 162.969C348.883 162.812 348.512 162.734 348.082 162.734C347.645 162.734 347.27 162.836 346.957 163.039C346.645 163.234 346.391 163.504 346.195 163.848C346.008 164.191 345.867 164.598 345.773 165.066C345.688 165.527 345.645 166.027 345.645 166.566ZM363.164 170.141V164.492C363.164 164.086 363.098 163.738 362.965 163.449C362.832 163.152 362.625 162.922 362.344 162.758C362.07 162.594 361.715 162.512 361.277 162.512C360.902 162.512 360.578 162.578 360.305 162.711C360.031 162.836 359.82 163.02 359.672 163.262C359.523 163.496 359.449 163.773 359.449 164.094H356.074C356.074 163.555 356.199 163.043 356.449 162.559C356.699 162.074 357.062 161.648 357.539 161.281C358.016 160.906 358.582 160.613 359.238 160.402C359.902 160.191 360.645 160.086 361.465 160.086C362.449 160.086 363.324 160.25 364.09 160.578C364.855 160.906 365.457 161.398 365.895 162.055C366.34 162.711 366.562 163.531 366.562 164.516V169.941C366.562 170.637 366.605 171.207 366.691 171.652C366.777 172.09 366.902 172.473 367.066 172.801V173H363.656C363.492 172.656 363.367 172.227 363.281 171.711C363.203 171.188 363.164 170.664 363.164 170.141ZM363.609 165.277L363.633 167.188H361.746C361.301 167.188 360.914 167.238 360.586 167.34C360.258 167.441 359.988 167.586 359.777 167.773C359.566 167.953 359.41 168.164 359.309 168.406C359.215 168.648 359.168 168.914 359.168 169.203C359.168 169.492 359.234 169.754 359.367 169.988C359.5 170.215 359.691 170.395 359.941 170.527C360.191 170.652 360.484 170.715 360.82 170.715C361.328 170.715 361.77 170.613 362.145 170.41C362.52 170.207 362.809 169.957 363.012 169.66C363.223 169.363 363.332 169.082 363.34 168.816L364.23 170.246C364.105 170.566 363.934 170.898 363.715 171.242C363.504 171.586 363.234 171.91 362.906 172.215C362.578 172.512 362.184 172.758 361.723 172.953C361.262 173.141 360.715 173.234 360.082 173.234C359.277 173.234 358.547 173.074 357.891 172.754C357.242 172.426 356.727 171.977 356.344 171.406C355.969 170.828 355.781 170.172 355.781 169.438C355.781 168.773 355.906 168.184 356.156 167.668C356.406 167.152 356.773 166.719 357.258 166.367C357.75 166.008 358.363 165.738 359.098 165.559C359.832 165.371 360.684 165.277 361.652 165.277H363.609ZM376.008 170.141V164.492C376.008 164.086 375.941 163.738 375.809 163.449C375.676 163.152 375.469 162.922 375.188 162.758C374.914 162.594 374.559 162.512 374.121 162.512C373.746 162.512 373.422 162.578 373.148 162.711C372.875 162.836 372.664 163.02 372.516 163.262C372.367 163.496 372.293 163.773 372.293 164.094H368.918C368.918 163.555 369.043 163.043 369.293 162.559C369.543 162.074 369.906 161.648 370.383 161.281C370.859 160.906 371.426 160.613 372.082 160.402C372.746 160.191 373.488 160.086 374.309 160.086C375.293 160.086 376.168 160.25 376.934 160.578C377.699 160.906 378.301 161.398 378.738 162.055C379.184 162.711 379.406 163.531 379.406 164.516V169.941C379.406 170.637 379.449 171.207 379.535 171.652C379.621 172.09 379.746 172.473 379.91 172.801V173H376.5C376.336 172.656 376.211 172.227 376.125 171.711C376.047 171.188 376.008 170.664 376.008 170.141ZM376.453 165.277L376.477 167.188H374.59C374.145 167.188 373.758 167.238 373.43 167.34C373.102 167.441 372.832 167.586 372.621 167.773C372.41 167.953 372.254 168.164 372.152 168.406C372.059 168.648 372.012 168.914 372.012 169.203C372.012 169.492 372.078 169.754 372.211 169.988C372.344 170.215 372.535 170.395 372.785 170.527C373.035 170.652 373.328 170.715 373.664 170.715C374.172 170.715 374.613 170.613 374.988 170.41C375.363 170.207 375.652 169.957 375.855 169.66C376.066 169.363 376.176 169.082 376.184 168.816L377.074 170.246C376.949 170.566 376.777 170.898 376.559 171.242C376.348 171.586 376.078 171.91 375.75 172.215C375.422 172.512 375.027 172.758 374.566 172.953C374.105 173.141 373.559 173.234 372.926 173.234C372.121 173.234 371.391 173.074 370.734 172.754C370.086 172.426 369.57 171.977 369.188 171.406C368.812 170.828 368.625 170.172 368.625 169.438C368.625 168.773 368.75 168.184 369 167.668C369.25 167.152 369.617 166.719 370.102 166.367C370.594 166.008 371.207 165.738 371.941 165.559C372.676 165.371 373.527 165.277 374.496 165.277H376.453Z" fill="#0F172A"/>
</g>
<g clip-path="url(#clip3_100_8898)">
<path d="M461 151.5C461 142.072 461 137.358 463.929 134.429C466.858 131.5 471.572 131.5 481 131.5C490.428 131.5 495.142 131.5 498.071 134.429C501 137.358 501 142.072 501 151.5C501 160.928 501 165.642 498.071 168.571C495.142 171.5 490.428 171.5 481 171.5C471.572 171.5 466.858 171.5 463.929 168.571C461 165.642 461 160.928 461 151.5Z" fill="#0C4A6E"/>
<path d="M485.003 157.5C485.555 157.5 486.013 157.952 485.903 158.493C485.709 159.449 485.238 160.335 484.538 161.035C483.601 161.973 482.329 162.5 481.003 162.5C479.677 162.5 478.405 161.973 477.467 161.035C476.767 160.335 476.296 159.449 476.102 158.493C475.993 157.952 476.45 157.5 477.003 157.5H485.003Z" fill="#67E8F9"/>
<path d="M487.101 149.276C486.567 149.419 486.241 149.977 486.511 150.459C486.796 150.966 487.19 151.408 487.669 151.751C488.421 152.29 489.337 152.552 490.26 152.491C491.184 152.431 492.057 152.052 492.733 151.419C493.408 150.787 493.843 149.94 493.964 149.022C494.085 148.105 493.884 147.174 493.395 146.388C492.907 145.602 492.161 145.01 491.284 144.712C490.408 144.415 489.456 144.43 488.59 144.756C488.038 144.964 487.543 145.289 487.137 145.705C486.751 146.1 486.922 146.724 487.4 147L487.908 147.293C488.679 147.738 488.527 148.894 487.667 149.125L487.101 149.276Z" fill="#67E8F9"/>
<path d="M474.898 149.276C475.431 149.419 475.758 149.977 475.487 150.459C475.203 150.966 474.809 151.408 474.33 151.751C473.578 152.29 472.662 152.552 471.738 152.491C470.815 152.431 469.941 152.052 469.266 151.419C468.59 150.787 468.155 149.94 468.034 149.022C467.913 148.105 468.115 147.174 468.603 146.388C469.092 145.602 469.838 145.01 470.714 144.712C471.591 144.415 472.543 144.43 473.409 144.756C473.961 144.964 474.455 145.289 474.862 145.705C475.248 146.1 475.076 146.724 474.598 147L474.091 147.293C473.319 147.738 473.471 148.894 474.332 149.125L474.898 149.276Z" fill="#67E8F9"/>
<path d="M518.105 141.5V159.5H514.73V141.5H518.105ZM517.625 152.715H516.699C516.707 151.832 516.824 151.02 517.051 150.277C517.277 149.527 517.602 148.879 518.023 148.332C518.445 147.777 518.949 147.348 519.535 147.043C520.129 146.738 520.785 146.586 521.504 146.586C522.129 146.586 522.695 146.676 523.203 146.855C523.719 147.027 524.16 147.309 524.527 147.699C524.902 148.082 525.191 148.586 525.395 149.211C525.598 149.836 525.699 150.594 525.699 151.484V159.5H522.301V151.461C522.301 150.898 522.219 150.457 522.055 150.137C521.898 149.809 521.668 149.578 521.363 149.445C521.066 149.305 520.699 149.234 520.262 149.234C519.777 149.234 519.363 149.324 519.02 149.504C518.684 149.684 518.414 149.934 518.211 150.254C518.008 150.566 517.859 150.934 517.766 151.355C517.672 151.777 517.625 152.23 517.625 152.715ZM535.109 156.641V150.992C535.109 150.586 535.043 150.238 534.91 149.949C534.777 149.652 534.57 149.422 534.289 149.258C534.016 149.094 533.66 149.012 533.223 149.012C532.848 149.012 532.523 149.078 532.25 149.211C531.977 149.336 531.766 149.52 531.617 149.762C531.469 149.996 531.395 150.273 531.395 150.594H528.02C528.02 150.055 528.145 149.543 528.395 149.059C528.645 148.574 529.008 148.148 529.484 147.781C529.961 147.406 530.527 147.113 531.184 146.902C531.848 146.691 532.59 146.586 533.41 146.586C534.395 146.586 535.27 146.75 536.035 147.078C536.801 147.406 537.402 147.898 537.84 148.555C538.285 149.211 538.508 150.031 538.508 151.016V156.441C538.508 157.137 538.551 157.707 538.637 158.152C538.723 158.59 538.848 158.973 539.012 159.301V159.5H535.602C535.438 159.156 535.312 158.727 535.227 158.211C535.148 157.688 535.109 157.164 535.109 156.641ZM535.555 151.777L535.578 153.688H533.691C533.246 153.688 532.859 153.738 532.531 153.84C532.203 153.941 531.934 154.086 531.723 154.273C531.512 154.453 531.355 154.664 531.254 154.906C531.16 155.148 531.113 155.414 531.113 155.703C531.113 155.992 531.18 156.254 531.312 156.488C531.445 156.715 531.637 156.895 531.887 157.027C532.137 157.152 532.43 157.215 532.766 157.215C533.273 157.215 533.715 157.113 534.09 156.91C534.465 156.707 534.754 156.457 534.957 156.16C535.168 155.863 535.277 155.582 535.285 155.316L536.176 156.746C536.051 157.066 535.879 157.398 535.66 157.742C535.449 158.086 535.18 158.41 534.852 158.715C534.523 159.012 534.129 159.258 533.668 159.453C533.207 159.641 532.66 159.734 532.027 159.734C531.223 159.734 530.492 159.574 529.836 159.254C529.188 158.926 528.672 158.477 528.289 157.906C527.914 157.328 527.727 156.672 527.727 155.938C527.727 155.273 527.852 154.684 528.102 154.168C528.352 153.652 528.719 153.219 529.203 152.867C529.695 152.508 530.309 152.238 531.043 152.059C531.777 151.871 532.629 151.777 533.598 151.777H535.555ZM544.484 149.258V164.375H541.109V146.82H544.238L544.484 149.258ZM552.512 153.02V153.266C552.512 154.188 552.402 155.043 552.184 155.832C551.973 156.621 551.66 157.309 551.246 157.895C550.832 158.473 550.316 158.926 549.699 159.254C549.09 159.574 548.387 159.734 547.59 159.734C546.816 159.734 546.145 159.578 545.574 159.266C545.004 158.953 544.523 158.516 544.133 157.953C543.75 157.383 543.441 156.723 543.207 155.973C542.973 155.223 542.793 154.418 542.668 153.559V152.914C542.793 151.992 542.973 151.148 543.207 150.383C543.441 149.609 543.75 148.941 544.133 148.379C544.523 147.809 545 147.367 545.562 147.055C546.133 146.742 546.801 146.586 547.566 146.586C548.371 146.586 549.078 146.738 549.688 147.043C550.305 147.348 550.82 147.785 551.234 148.355C551.656 148.926 551.973 149.605 552.184 150.395C552.402 151.184 552.512 152.059 552.512 153.02ZM549.125 153.266V153.02C549.125 152.48 549.078 151.984 548.984 151.531C548.898 151.07 548.758 150.668 548.562 150.324C548.375 149.98 548.125 149.715 547.812 149.527C547.508 149.332 547.137 149.234 546.699 149.234C546.238 149.234 545.844 149.309 545.516 149.457C545.195 149.605 544.934 149.82 544.73 150.102C544.527 150.383 544.375 150.719 544.273 151.109C544.172 151.5 544.109 151.941 544.086 152.434V154.062C544.125 154.641 544.234 155.16 544.414 155.621C544.594 156.074 544.871 156.434 545.246 156.699C545.621 156.965 546.113 157.098 546.723 157.098C547.168 157.098 547.543 157 547.848 156.805C548.152 156.602 548.398 156.324 548.586 155.973C548.781 155.621 548.918 155.215 548.996 154.754C549.082 154.293 549.125 153.797 549.125 153.266ZM558.172 146.82V159.5H554.785V146.82H558.172ZM554.574 143.516C554.574 143.023 554.746 142.617 555.09 142.297C555.434 141.977 555.895 141.816 556.473 141.816C557.043 141.816 557.5 141.977 557.844 142.297C558.195 142.617 558.371 143.023 558.371 143.516C558.371 144.008 558.195 144.414 557.844 144.734C557.5 145.055 557.043 145.215 556.473 145.215C555.895 145.215 555.434 145.055 555.09 144.734C554.746 144.414 554.574 144.008 554.574 143.516Z" fill="#0F172A"/>
</g>
<g clip-path="url(#clip4_100_8898)">
<path d="M705.53 134.908C705.53 134.959 705.53 135.024 705.516 135.062C705.451 135.562 705.451 136.062 705.49 136.575C705.516 136.704 705.543 136.832 705.648 136.935C705.818 137.127 706.08 137.089 706.185 136.858C706.238 136.742 706.238 136.627 706.212 136.511C706.08 136.024 706.054 135.511 706.041 135.011C706.041 134.985 706.041 134.947 706.041 134.908C706.185 134.895 706.317 134.882 706.435 134.882C706.527 134.87 706.605 134.857 706.671 134.818C706.868 134.716 706.868 134.498 706.658 134.395C706.579 134.357 706.474 134.344 706.382 134.344C706.054 134.357 705.726 134.357 705.398 134.357C705.28 134.357 705.162 134.369 705.044 134.382C704.979 134.395 704.9 134.395 704.847 134.434C704.756 134.472 704.703 134.536 704.703 134.626C704.716 134.716 704.756 134.767 704.847 134.805C704.9 134.844 704.965 134.857 705.031 134.857C705.188 134.87 705.359 134.895 705.53 134.908ZM709.137 135.498C709.137 135.511 709.15 135.524 709.15 135.524C709.203 135.87 709.255 136.204 709.294 136.537C709.308 136.652 709.321 136.755 709.399 136.845C709.57 137.063 709.832 137.037 709.95 136.806C710.003 136.691 710.016 136.575 709.99 136.447C709.911 136.062 709.872 135.678 709.793 135.306C709.74 135.075 709.675 134.857 709.609 134.652C709.57 134.523 709.478 134.434 709.321 134.421C709.163 134.395 709.045 134.472 708.98 134.587C708.901 134.69 708.835 134.793 708.783 134.908C708.691 135.113 708.612 135.319 708.507 135.511C708.494 135.562 708.481 135.601 708.455 135.639C708.442 135.614 708.429 135.601 708.429 135.601C708.258 135.28 708.101 134.959 707.93 134.652C707.904 134.626 707.891 134.6 707.878 134.575C707.799 134.459 707.707 134.395 707.563 134.395C707.432 134.408 707.327 134.485 707.261 134.6C707.235 134.652 707.235 134.69 707.222 134.741C707.169 135.152 707.104 135.562 707.051 135.973C707.025 136.204 707.012 136.434 707.012 136.665C706.999 136.717 707.012 136.781 707.038 136.832C707.064 136.935 707.143 136.999 707.248 137.012C707.379 137.024 707.471 136.986 707.51 136.883C707.55 136.806 707.563 136.742 707.576 136.678C707.628 136.447 707.668 136.229 707.707 136.011C707.733 135.883 707.746 135.78 707.786 135.639C707.812 135.69 707.838 135.729 707.865 135.767C707.983 135.921 708.101 136.075 708.245 136.204C708.389 136.306 708.507 136.293 708.625 136.178C708.652 136.152 708.665 136.139 708.691 136.114C708.809 135.934 708.953 135.755 709.071 135.575C709.098 135.549 709.111 135.524 709.137 135.498Z" fill="#4C1D95"/>
<path d="M678.909 135.16C678.817 135.404 678.8 135.579 678.842 135.725C678.889 135.924 679.009 135.989 679.173 135.938C680.714 135.566 684.093 136.623 685.343 136.918C685.638 136.98 685.878 136.607 685.677 136.273C685.383 135.95 682.006 134.566 680.718 134.49C680.212 134.463 679.309 134.336 678.909 135.16Z" fill="#4C1D95"/>
<path d="M692.115 130.679C692.28 130.772 692.371 130.86 692.417 130.959C692.484 131.089 692.449 131.178 692.335 131.224C691.317 131.71 689.961 133.802 689.414 134.524C689.282 134.69 688.976 134.594 688.93 134.321C688.939 134.012 690.141 131.741 690.811 131.123C691.075 130.881 691.51 130.408 692.115 130.679Z" fill="#4C1D95"/>
<path d="M684.002 129.65C684.199 129.504 684.404 129.453 684.509 129.548C686.045 130.833 686.86 132.868 687.365 134.731C687.384 134.774 687.385 134.836 687.37 134.901C687.364 134.957 687.322 135.015 687.256 135.061C687.186 135.111 687.125 135.126 687.097 135.083C686.423 134.187 682.577 130.702 684.002 129.65Z" fill="#4C1D95"/>
<path d="M651.461 151.928C651.829 151.66 652.23 151.437 652.653 151.263C653.097 151.139 653.569 151.16 654 151.322C654.43 151.484 654.794 151.778 655.038 152.161C655.256 152.543 655.342 152.983 655.281 153.416C655.221 153.85 655.019 154.252 654.704 154.563C654.461 154.815 654.184 155.034 653.882 155.216C652.534 156.067 651.175 156.871 649.815 157.722C649.537 157.935 649.242 158.126 648.933 158.294C648.463 158.523 647.925 158.584 647.414 158.467C646.902 158.35 646.448 158.062 646.131 157.652C645.894 157.362 645.693 157.045 645.535 156.708C644.247 154.061 642.911 151.427 641.671 148.733C641.099 147.568 640.634 146.227 640.181 144.933C639.985 144.557 639.946 144.121 640.074 143.718C640.202 143.314 640.485 142.976 640.864 142.774C641.243 142.572 641.688 142.522 642.104 142.636C642.519 142.75 642.873 143.017 643.09 143.382C643.757 144.249 644.348 145.169 644.855 146.134C646.143 148.465 647.371 150.797 648.611 153.059C648.683 153.184 648.763 153.304 648.85 153.42C649.783 153.036 650.661 152.535 651.461 151.928Z" fill="#4C1D95"/>
<path d="M664.774 151.113C661.828 154.483 656.892 153.631 654.412 149.294C652.647 146.217 652.337 141.133 656.176 137.927C656.996 137.256 657.977 136.799 659.026 136.598C660.313 136.418 661.625 136.64 662.775 137.232C663.925 137.825 664.854 138.758 665.43 139.898C667.528 143.628 667.23 148.385 664.774 151.113ZM663.581 143.255C663.268 142.338 662.641 141.556 661.805 141.04C661.331 140.71 660.757 140.55 660.177 140.586C659.597 140.622 659.047 140.853 658.621 141.238C656.916 142.719 656.558 146.228 657.798 148.315C657.956 148.655 658.188 148.958 658.478 149.201C658.768 149.445 659.109 149.623 659.477 149.724C659.845 149.825 660.232 149.846 660.609 149.786C660.986 149.726 661.345 149.586 661.662 149.376C662.586 148.675 663.264 147.711 663.602 146.616C663.939 145.521 663.92 144.35 663.546 143.267L663.581 143.255Z" fill="#4C1D95"/>
<path d="M676.795 144.725C676.493 144.788 676.182 144.792 675.879 144.736C675.576 144.68 675.287 144.565 675.03 144.398C674.805 144.272 674.612 144.1 674.463 143.892C674.315 143.684 674.216 143.447 674.172 143.197C674.129 142.947 674.143 142.691 674.213 142.448C674.283 142.204 674.407 141.978 674.577 141.787C674.873 141.402 675.293 141.127 675.769 141.006C677.013 140.653 678.293 140.438 679.585 140.364C679.869 140.332 680.157 140.356 680.431 140.433C680.706 140.511 680.962 140.642 681.184 140.818C681.406 140.994 681.59 141.212 681.725 141.458C681.86 141.704 681.943 141.975 681.97 142.253C682.343 143.62 682.383 145.053 682.089 146.439C681.016 150.915 677.32 152.454 673.17 151.02C672.005 150.637 670.984 149.923 670.237 148.968C669.24 147.819 668.533 146.458 668.174 144.993C667.882 143.688 667.914 142.335 668.267 141.045C668.62 139.755 669.283 138.566 670.201 137.578C671.072 136.504 672.203 135.658 673.492 135.118C674.306 134.679 675.259 134.554 676.163 134.768C676.368 134.824 676.554 134.932 676.702 135.081C676.85 135.231 676.954 135.416 677.004 135.618C677.054 135.821 677.048 136.032 676.986 136.231C676.924 136.43 676.808 136.609 676.652 136.75C676.354 137.014 676.031 137.248 675.686 137.45C674.626 138.11 673.703 138.96 672.967 139.956C672.485 140.601 672.152 141.341 671.994 142.124C671.835 142.908 671.854 143.716 672.049 144.492C672.32 145.549 672.92 146.498 673.766 147.208C676.389 149.54 679.8 147.29 679.204 144.107C678.333 144.317 677.57 144.538 676.795 144.725Z" fill="#4C1D95"/>
<path d="M692.82 151.301C688.944 153.632 684.532 151.301 683.566 146.404C682.863 142.906 684.198 138.01 688.873 136.144C689.867 135.756 690.946 135.62 692.009 135.748C693.286 135.977 694.457 136.591 695.358 137.505C696.258 138.419 696.843 139.587 697.029 140.843C697.816 145.005 696.027 149.447 692.82 151.301ZM694.167 143.454C694.166 142.486 693.815 141.549 693.177 140.808C692.836 140.35 692.343 140.021 691.782 139.879C691.221 139.736 690.627 139.789 690.101 140.027C688.002 140.913 686.524 144.131 687.06 146.497C687.101 146.869 687.225 147.227 687.422 147.547C687.619 147.867 687.886 148.141 688.203 148.349C688.519 148.558 688.879 148.697 689.256 148.755C689.634 148.814 690.02 148.791 690.387 148.689C691.496 148.31 692.457 147.602 693.134 146.664C693.812 145.725 694.173 144.603 694.167 143.454Z" fill="#4C1D95"/>
<path d="M700.946 152.28C700.888 152.706 700.658 153.093 700.308 153.354C699.958 153.615 699.517 153.73 699.08 153.673C698.644 153.616 698.249 153.391 697.981 153.049C697.714 152.707 697.597 152.275 697.655 151.848C697.714 151.421 697.943 151.035 698.293 150.774C698.643 150.512 699.085 150.398 699.521 150.455C699.958 150.512 700.353 150.736 700.62 151.079C700.888 151.421 701.005 151.853 700.946 152.28ZM699.909 136.552C700.136 136.213 700.468 135.955 700.857 135.817C701.246 135.678 701.671 135.666 702.067 135.782C702.47 135.881 702.826 136.112 703.076 136.437C703.326 136.762 703.454 137.16 703.439 137.566C703.386 138.217 703.286 138.864 703.14 139.502C702.747 141.658 702.365 143.815 701.948 145.949C701.757 146.8 701.507 147.616 701.233 148.479C701.137 148.748 700.978 148.992 700.768 149.19C700.637 149.339 700.47 149.453 700.282 149.522C700.094 149.591 699.892 149.612 699.693 149.584C699.495 149.556 699.307 149.48 699.146 149.362C698.986 149.244 698.859 149.089 698.776 148.91C698.634 148.59 698.557 148.245 698.55 147.896C698.55 146.45 698.55 144.993 698.645 143.535C698.807 141.456 699.126 139.39 699.599 137.356C699.655 137.084 699.76 136.823 699.909 136.587V136.552Z" fill="#4C1D95"/>
<path fill-rule="evenodd" clip-rule="evenodd" d="M646.425 161.649C646.284 161.956 646.246 162.299 646.314 162.629C646.36 163.063 646.461 163.491 646.614 163.901C646.805 164.404 647.019 164.901 647.282 165.514C647.343 165.655 647.406 165.802 647.472 165.957C647.828 166.788 648.274 167.849 648.869 169.384C649.037 169.82 649.186 170.26 649.337 170.703C649.398 170.882 649.459 171.061 649.521 171.241C649.745 171.881 650.131 172.455 650.641 172.911C650.858 173.161 651.146 173.343 651.469 173.435C651.798 173.528 652.147 173.522 652.473 173.418C652.798 173.314 653.084 173.116 653.293 172.851C653.498 172.591 653.62 172.278 653.644 171.951C653.777 171.313 653.731 170.653 653.512 170.038C653.164 169.018 652.768 167.996 652.311 166.997L652.309 166.992C651.557 165.429 650.793 163.876 649.992 162.322L649.986 162.311C649.752 161.907 649.448 161.545 649.087 161.242C648.852 160.972 648.529 160.79 648.172 160.727C647.807 160.663 647.431 160.728 647.111 160.91C646.808 161.079 646.568 161.338 646.425 161.649Z" fill="#4C1D95"/>
<path fill-rule="evenodd" clip-rule="evenodd" d="M657.908 157.799C656.73 157.5 655.498 157.457 654.301 157.671C653.373 157.76 652.461 157.97 651.827 158.384C651.505 158.595 651.245 158.866 651.1 159.21C650.954 159.556 650.936 159.952 651.055 160.393C651.273 161.201 651.556 161.986 651.838 162.769L651.884 162.896L651.885 162.899C652.734 165.173 653.592 167.44 654.457 169.699C654.558 170.055 654.701 170.398 654.882 170.722L654.886 170.728C655.126 171.13 655.433 171.49 655.796 171.792C655.977 171.959 656.201 172.074 656.444 172.125C656.69 172.177 656.945 172.162 657.183 172.081C657.42 172.001 657.63 171.859 657.79 171.669C657.948 171.483 658.051 171.259 658.089 171.021C658.245 170.372 658.195 169.693 657.945 169.073C657.867 168.865 657.806 168.652 657.742 168.427C657.72 168.353 657.698 168.276 657.675 168.199C659.656 167.442 661.764 166.424 662.505 164.056C662.795 163.238 662.819 162.352 662.574 161.519C662.328 160.686 661.825 159.947 661.133 159.405C660.191 158.646 659.09 158.098 657.908 157.799ZM654.641 160.703C654.68 160.692 654.719 160.682 654.759 160.672C656.048 160.474 657.367 160.738 658.474 161.416C658.961 161.747 659.161 162.116 659.195 162.47C659.23 162.835 659.095 163.23 658.822 163.61C658.307 164.328 657.367 164.903 656.518 165.01C655.899 163.616 655.27 162.166 654.641 160.703Z" fill="#4C1D95"/>
<path d="M665.764 155.248C667.168 154.614 668.906 154.504 670.267 154.95C670.61 155.048 670.907 155.259 671.108 155.547C671.308 155.834 671.4 156.179 671.369 156.525C671.367 156.749 671.311 156.97 671.205 157.169C671.097 157.371 670.941 157.545 670.75 157.677C670.559 157.808 670.338 157.892 670.107 157.922C669.875 157.952 669.64 157.928 669.42 157.85L669.403 157.844L669.388 157.836C669.275 157.778 669.156 157.735 669.032 157.707L669.024 157.705C668.067 157.457 667.164 157.868 666.835 158.375C666.677 158.616 666.658 158.859 666.789 159.081C666.929 159.318 667.273 159.585 667.969 159.774C668.161 159.826 668.357 159.875 668.556 159.926C669.107 160.065 669.679 160.21 670.232 160.411L670.235 160.412C672.787 161.361 673.738 163.328 673.412 165.178C673.09 167.007 671.528 168.672 669.178 169.064C668.323 169.25 667.433 169.214 666.597 168.96C665.758 168.705 665.002 168.24 664.404 167.612L664.389 167.595C664.2 167.358 664.073 167.08 664.017 166.785C663.965 166.518 663.992 166.243 664.095 165.991C664.197 165.74 664.371 165.524 664.594 165.366C664.83 165.187 665.115 165.079 665.413 165.057C665.71 165.035 666.007 165.098 666.267 165.238C666.528 165.361 666.77 165.518 666.987 165.705L666.992 165.708C667.376 166.052 667.841 166.142 668.288 166.059C668.74 165.975 669.166 165.713 669.44 165.365C669.712 165.02 669.821 164.61 669.691 164.212C669.561 163.81 669.169 163.361 668.307 162.985C668.082 162.892 667.849 162.816 667.606 162.743C667.54 162.723 667.474 162.704 667.406 162.684C667.227 162.63 667.042 162.575 666.861 162.515C666.736 162.473 666.612 162.434 666.49 162.395C666.154 162.288 665.828 162.184 665.513 162.045C664.829 161.817 664.238 161.379 663.828 160.797C663.416 160.212 663.209 159.513 663.237 158.804C663.239 157.076 664.352 155.885 665.764 155.248Z" fill="#4C1D95"/>
<path d="M683.559 155.064C683.287 154.934 682.986 154.872 682.683 154.884C682.381 154.897 682.086 154.982 681.826 155.134C681.567 155.284 681.35 155.495 681.195 155.747C681.053 155.959 680.954 156.196 680.905 156.446C680.856 156.695 680.857 156.951 680.909 157.199C680.959 157.519 681.016 157.829 681.071 158.136C681.163 158.643 681.252 159.138 681.311 159.643L681.314 159.656C681.448 160.448 681.518 161.25 681.524 162.053L681.525 162.064C681.571 162.931 681.269 163.782 680.683 164.435L680.674 164.446C680.483 164.685 680.229 164.867 679.938 164.972C679.648 165.078 679.333 165.102 679.03 165.042C678.726 164.983 678.445 164.842 678.219 164.635C677.992 164.428 677.829 164.163 677.748 163.871C677.574 163.255 677.473 162.622 677.447 161.984L677.744 157.358C677.749 157.297 677.754 157.235 677.759 157.173C677.77 157.032 677.782 156.889 677.787 156.756C677.794 156.559 677.788 156.357 677.741 156.166C677.693 155.971 677.602 155.785 677.44 155.626C677.28 155.47 677.064 155.354 676.792 155.275C676.301 155.136 675.885 155.141 675.539 155.284C675.193 155.428 674.955 155.695 674.787 156.003C674.62 156.309 674.513 156.67 674.432 157.033C674.372 157.302 674.324 157.584 674.278 157.853C674.262 157.945 674.247 158.036 674.231 158.125L674.231 158.127C673.985 159.601 673.912 161.097 674.013 162.587C674.031 163.392 674.203 164.187 674.519 164.93C674.876 165.89 675.521 166.721 676.371 167.315C677.223 167.909 678.239 168.237 679.285 168.254C680.331 168.272 681.358 167.978 682.23 167.412C683.1 166.846 683.774 166.036 684.164 165.088C684.708 163.881 684.964 162.568 684.911 161.249C684.879 160.286 684.826 159.316 684.772 158.351C684.746 157.877 684.72 157.405 684.697 156.935C684.685 156.464 684.526 156.008 684.241 155.628C684.065 155.388 683.831 155.194 683.559 155.064Z" fill="#4C1D95"/>
<path d="M693.199 162.318C693.171 162.352 693.142 162.387 693.112 162.424C692.89 161.176 692.685 159.927 692.48 158.677C692.406 158.228 692.332 157.778 692.257 157.329L692.249 157.278L692.222 157.235C692.171 157.154 692.165 157.074 692.165 156.903V156.884L692.162 156.864C692.107 156.512 691.944 156.185 691.695 155.925C691.447 155.665 691.125 155.484 690.771 155.406C690.417 155.321 690.045 155.34 689.703 155.46C689.361 155.58 689.062 155.797 688.845 156.082C688.665 156.3 688.517 156.543 688.406 156.802C688.155 157.361 687.901 157.92 687.647 158.482L687.642 158.491C687.007 159.893 686.368 161.303 685.747 162.725L685.745 162.73C685.364 163.652 685.049 164.623 684.736 165.591C684.673 165.785 684.611 165.978 684.548 166.171C684.434 166.476 684.385 166.801 684.402 167.125C684.381 167.416 684.452 167.706 684.606 167.956C684.762 168.211 684.997 168.411 685.276 168.529C685.571 168.656 685.902 168.683 686.215 168.606C686.528 168.529 686.806 168.352 687.005 168.104C687.259 167.799 687.477 167.466 687.655 167.113C688.181 166.061 688.684 164.996 689.184 163.936C689.378 163.526 689.566 163.159 689.78 162.759C689.794 162.808 689.809 162.856 689.825 162.905C690.049 163.87 690.428 164.795 690.947 165.645C691.045 165.825 691.182 165.983 691.348 166.107C691.516 166.232 691.71 166.32 691.916 166.365C692.122 166.409 692.336 166.41 692.542 166.365C692.749 166.321 692.943 166.233 693.111 166.108L693.444 165.865L696.026 163.738L695.873 164.689C695.664 165.997 695.456 167.294 695.235 168.592C695.09 169.167 695.09 169.767 695.235 170.342C695.298 170.666 695.458 170.963 695.695 171.198C695.934 171.434 696.24 171.594 696.573 171.658C696.906 171.722 697.251 171.687 697.564 171.556C697.871 171.428 698.133 171.213 698.316 170.94C698.742 170.423 699.007 169.798 699.08 169.138C699.189 168.207 699.313 167.262 699.437 166.318C699.58 165.23 699.722 164.143 699.843 163.076L699.843 163.072C699.959 161.904 700.015 160.732 700.012 159.558C700.037 159.188 699.943 158.818 699.741 158.502C699.539 158.186 699.24 157.939 698.887 157.798C698.519 157.635 698.108 157.591 697.713 157.674C697.321 157.756 696.966 157.958 696.699 158.251C696.223 158.682 695.776 159.143 695.362 159.631L695.359 159.634C694.906 160.185 694.457 160.747 694.01 161.306C693.739 161.645 693.468 161.984 693.199 162.318Z" fill="#4C1D95"/>
</g>
<g clip-path="url(#clip5_100_8898)">
<path d="M800.447 160.968C797.461 163.954 792.403 163.942 790.991 159.962C790.714 159.183 790.493 158.382 790.331 157.565C789.667 154.227 790.007 150.767 791.31 147.622C792.612 144.478 794.818 141.791 797.648 139.9C800.477 138.009 803.804 137 807.208 137C810.611 137 813.938 138.009 816.767 139.9C819.597 141.791 821.803 144.478 823.105 147.623C824.407 150.767 824.748 154.227 824.084 157.565C823.922 158.382 823.701 159.183 823.424 159.962C822.012 163.942 816.954 163.954 813.968 160.968L809.358 156.358C808.918 155.918 808.963 155.192 809.085 154.581C809.159 154.21 809.121 153.825 808.976 153.475C808.831 153.125 808.586 152.826 808.271 152.616C807.956 152.405 807.586 152.293 807.208 152.293C806.829 152.293 806.459 152.405 806.144 152.616C805.829 152.826 805.584 153.125 805.439 153.475C805.294 153.825 805.256 154.21 805.33 154.581C805.451 155.192 805.497 155.918 805.057 156.358L800.447 160.968Z" fill="url(#paint0_linear_100_8898)"/>
<path d="M842.125 157.539L844.938 147.32H848.465L844.188 160H842.055L842.125 157.539ZM840.191 147.32L843.016 157.551L843.074 160H840.93L836.652 147.32H840.191ZM853.539 147.32V160H850.152V147.32H853.539ZM849.941 144.016C849.941 143.523 850.113 143.117 850.457 142.797C850.801 142.477 851.262 142.316 851.84 142.316C852.41 142.316 852.867 142.477 853.211 142.797C853.562 143.117 853.738 143.523 853.738 144.016C853.738 144.508 853.562 144.914 853.211 145.234C852.867 145.555 852.41 145.715 851.84 145.715C851.262 145.715 850.801 145.555 850.457 145.234C850.113 144.914 849.941 144.508 849.941 144.016ZM859.703 150.086V160H856.328V147.32H859.504L859.703 150.086ZM863.523 147.238L863.465 150.367C863.301 150.344 863.102 150.324 862.867 150.309C862.641 150.285 862.434 150.273 862.246 150.273C861.77 150.273 861.355 150.336 861.004 150.461C860.66 150.578 860.371 150.754 860.137 150.988C859.91 151.223 859.738 151.508 859.621 151.844C859.512 152.18 859.449 152.562 859.434 152.992L858.754 152.781C858.754 151.961 858.836 151.207 859 150.52C859.164 149.824 859.402 149.219 859.715 148.703C860.035 148.188 860.426 147.789 860.887 147.508C861.348 147.227 861.875 147.086 862.469 147.086C862.656 147.086 862.848 147.102 863.043 147.133C863.238 147.156 863.398 147.191 863.523 147.238ZM871.914 147.32V149.711H864.531V147.32H871.914ZM866.359 144.191H869.734V156.18C869.734 156.547 869.781 156.828 869.875 157.023C869.977 157.219 870.125 157.355 870.32 157.434C870.516 157.504 870.762 157.539 871.059 157.539C871.27 157.539 871.457 157.531 871.621 157.516C871.793 157.492 871.938 157.469 872.055 157.445L872.066 159.93C871.777 160.023 871.465 160.098 871.129 160.152C870.793 160.207 870.422 160.234 870.016 160.234C869.273 160.234 868.625 160.113 868.07 159.871C867.523 159.621 867.102 159.223 866.805 158.676C866.508 158.129 866.359 157.41 866.359 156.52V144.191ZM881.336 156.965V147.32H884.711V160H881.535L881.336 156.965ZM881.711 154.363L882.707 154.34C882.707 155.184 882.609 155.969 882.414 156.695C882.219 157.414 881.926 158.039 881.535 158.57C881.145 159.094 880.652 159.504 880.059 159.801C879.465 160.09 878.766 160.234 877.961 160.234C877.344 160.234 876.773 160.148 876.25 159.977C875.734 159.797 875.289 159.52 874.914 159.145C874.547 158.762 874.258 158.273 874.047 157.68C873.844 157.078 873.742 156.355 873.742 155.512V147.32H877.117V155.535C877.117 155.91 877.16 156.227 877.246 156.484C877.34 156.742 877.469 156.953 877.633 157.117C877.797 157.281 877.988 157.398 878.207 157.469C878.434 157.539 878.684 157.574 878.957 157.574C879.652 157.574 880.199 157.434 880.598 157.152C881.004 156.871 881.289 156.488 881.453 156.004C881.625 155.512 881.711 154.965 881.711 154.363ZM886.75 153.789V153.543C886.75 152.613 886.883 151.758 887.148 150.977C887.414 150.188 887.801 149.504 888.309 148.926C888.816 148.348 889.441 147.898 890.184 147.578C890.926 147.25 891.777 147.086 892.738 147.086C893.699 147.086 894.555 147.25 895.305 147.578C896.055 147.898 896.684 148.348 897.191 148.926C897.707 149.504 898.098 150.188 898.363 150.977C898.629 151.758 898.762 152.613 898.762 153.543V153.789C898.762 154.711 898.629 155.566 898.363 156.355C898.098 157.137 897.707 157.82 897.191 158.406C896.684 158.984 896.059 159.434 895.316 159.754C894.574 160.074 893.723 160.234 892.762 160.234C891.801 160.234 890.945 160.074 890.195 159.754C889.453 159.434 888.824 158.984 888.309 158.406C887.801 157.82 887.414 157.137 887.148 156.355C886.883 155.566 886.75 154.711 886.75 153.789ZM890.125 153.543V153.789C890.125 154.32 890.172 154.816 890.266 155.277C890.359 155.738 890.508 156.145 890.711 156.496C890.922 156.84 891.195 157.109 891.531 157.305C891.867 157.5 892.277 157.598 892.762 157.598C893.23 157.598 893.633 157.5 893.969 157.305C894.305 157.109 894.574 156.84 894.777 156.496C894.98 156.145 895.129 155.738 895.223 155.277C895.324 154.816 895.375 154.32 895.375 153.789V153.543C895.375 153.027 895.324 152.543 895.223 152.09C895.129 151.629 894.977 151.223 894.766 150.871C894.562 150.512 894.293 150.23 893.957 150.027C893.621 149.824 893.215 149.723 892.738 149.723C892.262 149.723 891.855 149.824 891.52 150.027C891.191 150.23 890.922 150.512 890.711 150.871C890.508 151.223 890.359 151.629 890.266 152.09C890.172 152.543 890.125 153.027 890.125 153.543Z" fill="#0F172A"/>
</g>
<defs>
<linearGradient id="paint0_linear_100_8898" x1="790" y1="149.881" x2="824.415" y2="149.881" gradientUnits="userSpaceOnUse">
<stop stop-color="#C026D3"/>
<stop offset="1" stop-color="#701A75"/>
</linearGradient>
<clipPath id="clip0_100_8898">
<rect width="116" height="32" fill="white" transform="translate(218 7)"/>
</clipPath>
<clipPath id="clip1_100_8898">
<rect width="145" height="46" fill="white" transform="translate(618)"/>
</clipPath>
<clipPath id="clip2_100_8898">
<rect width="82" height="51" fill="white" transform="translate(299 126)"/>
</clipPath>
<clipPath id="clip3_100_8898">
<rect width="99" height="40" fill="white" transform="translate(461 131.5)"/>
</clipPath>
<clipPath id="clip4_100_8898">
<rect width="70" height="44" fill="white" transform="translate(640 129.5)"/>
</clipPath>
<clipPath id="clip5_100_8898">
<rect width="110" height="29" fill="white" transform="translate(790 137)"/>
</clipPath>
</defs>
</svg>
