<svg width="15" height="44" viewBox="0 0 15 44" fill="none" xmlns="http://www.w3.org/2000/svg">
<path d="M9.35547 36H3.69141V12.9922C3.69141 11.3906 4.00391 10.043 4.62891 8.94922C5.26693 7.84245 6.15885 7.00911 7.30469 6.44922C8.46354 5.8763 9.83724 5.58984 11.4258 5.58984C11.9466 5.58984 12.4479 5.62891 12.9297 5.70703C13.4115 5.77214 13.8802 5.85677 14.3359 5.96094L14.2773 10.1992C14.0299 10.1341 13.7695 10.0885 13.4961 10.0625C13.2227 10.0365 12.9036 10.0234 12.5391 10.0234C11.862 10.0234 11.2826 10.1406 10.8008 10.375C10.332 10.5964 9.97396 10.9284 9.72656 11.3711C9.47917 11.8138 9.35547 12.3542 9.35547 12.9922V36ZM13.5742 14.8672V18.8516H0.546875V14.8672H13.5742Z" fill="white"/>
</svg>
