<svg width="184" height="24" viewBox="0 0 184 24" fill="none" xmlns="http://www.w3.org/2000/svg">
<path d="M17.812 5.01663H6.145C3.855 5.01663 2 6.85163 2 9.11563V14.8836C2 17.1476 3.856 18.9836 6.145 18.9836H17.812C20.102 18.9836 21.957 17.1476 21.957 14.8836V9.11563C21.957 6.85163 20.101 5.01562 17.812 5.01562V5.01663ZM15.009 12.2796L9.552 14.8546C9.51872 14.8707 9.48192 14.878 9.44503 14.876C9.40815 14.874 9.37237 14.8626 9.34103 14.8431C9.3097 14.8235 9.28382 14.7964 9.2658 14.7641C9.24779 14.7318 9.23822 14.6956 9.238 14.6586V9.34963C9.23867 9.3125 9.24872 9.27614 9.26722 9.24395C9.28573 9.21176 9.31208 9.18477 9.34382 9.1655C9.37556 9.14624 9.41167 9.13532 9.44877 9.13377C9.48587 9.13221 9.52276 9.14008 9.556 9.15663L15.014 11.8916C15.0504 11.9098 15.0809 11.9378 15.102 11.9725C15.1232 12.0071 15.1341 12.0471 15.1336 12.0877C15.1331 12.1283 15.1211 12.168 15.0991 12.2021C15.077 12.2362 15.0458 12.2634 15.009 12.2806V12.2796Z" fill="#E2E8F0"/>
<path d="M49.0452 5.865V8.613H47.0312V11.973H49.0452V21.959H53.1792V11.974H55.9543C55.9543 11.974 56.2143 10.363 56.3403 8.601H53.1962V6.303C53.1962 5.96 53.6462 5.498 54.0922 5.498H56.3463V2H53.2822C48.9422 2 49.0452 5.363 49.0452 5.865V5.865Z" fill="#E2E8F0"/>
<path d="M102 5.90765C101.25 6.23503 100.456 6.44969 99.644 6.54465C100.497 6.04388 101.138 5.24976 101.448 4.31065C100.64 4.78098 99.7587 5.11226 98.841 5.29065C98.4545 4.88586 97.9897 4.56404 97.4748 4.34483C96.9598 4.12562 96.4056 4.01362 95.846 4.01565C93.58 4.01565 91.743 5.82565 91.743 8.05565C91.743 8.37165 91.779 8.68065 91.849 8.97565C90.2236 8.89835 88.6321 8.48306 87.1762 7.75629C85.7202 7.02952 84.4318 6.00723 83.393 4.75465C83.0288 5.36905 82.8374 6.07043 82.839 6.78465C82.8397 7.45262 83.0068 8.10988 83.3253 8.69705C83.6438 9.28421 84.1035 9.78276 84.663 10.1477C84.0125 10.1267 83.376 9.95298 82.805 9.64065V9.69065C82.805 11.6487 84.22 13.2817 86.095 13.6537C85.7426 13.7472 85.3796 13.7945 85.015 13.7947C84.75 13.7947 84.493 13.7697 84.242 13.7197C84.5101 14.5276 85.0231 15.232 85.7098 15.735C86.3965 16.238 87.2228 16.5147 88.074 16.5267C86.6141 17.6512 84.8218 18.2587 82.979 18.2537C82.647 18.2537 82.321 18.2337 82 18.1977C83.8813 19.3884 86.0626 20.0189 88.289 20.0157C95.836 20.0157 99.962 13.8587 99.962 8.51965L99.948 7.99665C100.753 7.43032 101.448 6.7225 102 5.90765V5.90765Z" fill="#E2E8F0"/>
<path d="M136.017 2H127.947C126.37 2.00185 124.858 2.62914 123.744 3.74424C122.629 4.85933 122.002 6.37115 122 7.948V16.018C122.002 17.5948 122.629 19.1066 123.744 20.2215C124.859 21.3364 126.371 21.9634 127.948 21.965H136.018C137.595 21.9631 139.107 21.3359 140.221 20.2208C141.336 19.1057 141.963 17.5938 141.965 16.017V7.947C141.963 6.37015 141.336 4.85844 140.221 3.74353C139.106 2.62862 137.594 2.00159 136.017 2V2ZM139.957 16.017C139.957 16.5344 139.855 17.0467 139.657 17.5248C139.459 18.0028 139.169 18.4371 138.803 18.803C138.437 19.1689 138.003 19.4591 137.525 19.6571C137.047 19.8551 136.534 19.957 136.017 19.957H127.947C126.902 19.9567 125.9 19.5415 125.162 18.8026C124.423 18.0638 124.008 17.0618 124.008 16.017V7.947C124.008 6.90222 124.423 5.90032 125.162 5.16165C125.901 4.42297 126.903 4.008 127.948 4.008H136.018C137.063 4.00827 138.065 4.42349 138.803 5.16235C139.542 5.90122 139.957 6.90322 139.957 7.948V16.018V16.017Z" fill="#E2E8F0"/>
<path d="M131.982 6.81836C130.614 6.82048 129.302 7.36514 128.334 8.33297C127.367 9.30079 126.822 10.6128 126.82 11.9814C126.822 13.3503 127.366 14.6627 128.334 15.6308C129.302 16.5988 130.614 17.1435 131.983 17.1454C133.352 17.1438 134.665 16.5992 135.633 15.6311C136.601 14.663 137.146 13.3505 137.147 11.9814C137.145 10.6124 136.6 9.30024 135.632 8.33255C134.664 7.36486 133.351 6.82068 131.982 6.81936V6.81836ZM131.982 15.1374C131.146 15.1374 130.343 14.805 129.751 14.2133C129.16 13.6216 128.827 12.8191 128.827 11.9824C128.827 11.1456 129.16 10.3431 129.751 9.75144C130.343 9.15976 131.146 8.82736 131.982 8.82736C132.819 8.82736 133.622 9.15976 134.213 9.75144C134.805 10.3431 135.137 11.1456 135.137 11.9824C135.137 12.8191 134.805 13.6216 134.213 14.2133C133.622 14.805 132.819 15.1374 131.982 15.1374V15.1374Z" fill="#E2E8F0"/>
<path d="M137.159 8.09509C137.842 8.09509 138.396 7.54127 138.396 6.85809C138.396 6.17492 137.842 5.62109 137.159 5.62109C136.476 5.62109 135.922 6.17492 135.922 6.85809C135.922 7.54127 136.476 8.09509 137.159 8.09509Z" fill="#E2E8F0"/>
<path d="M181.959 13.7184V21.0974H177.681V14.2124C177.681 12.4824 177.062 11.3024 175.514 11.3024C174.332 11.3024 173.628 12.0984 173.319 12.8674C173.206 13.1424 173.177 13.5254 173.177 13.9104V21.0974H168.897C168.897 21.0974 168.955 9.43739 168.897 8.22839H173.177V10.0524L173.149 10.0944H173.177V10.0524C173.745 9.17739 174.76 7.92639 177.033 7.92639C179.848 7.92639 181.959 9.76639 181.959 13.7184V13.7184ZM164.421 2.02539C162.958 2.02539 162 2.98539 162 4.24839C162 5.48339 162.93 6.47239 164.365 6.47239H164.393C165.886 6.47239 166.813 5.48339 166.813 4.24839C166.787 2.98539 165.887 2.02539 164.422 2.02539H164.421ZM162.254 21.0974H166.532V8.22839H162.254V21.0974Z" fill="#E2E8F0"/>
</svg>
